<?xml version="1.0" encoding="utf-8"?>
<!-- Generator: Adobe Illustrator 23.0.0, SVG Export Plug-In . SVG Version: 6.00 Build 0)  -->
<svg version="1.1" id="返回_part2" xmlns="http://www.w3.org/2000/svg" xmlns:xlink="http://www.w3.org/1999/xlink" x="0px"
	 y="0px" viewBox="0 0 25 22" style="enable-background:new 0 0 25 22;" xml:space="preserve">
<style type="text/css">
	.st0{fill:#C5C5C5;}
</style>
<path class="st0" d="M3.1,4.6c-0.4-0.3-0.9-0.3-1.3,0C1.6,4.7,1.5,5,1.5,5.2c0,0.1,0.1,0.2,0.1,0.3C1.5,5.6,1.5,5.7,1.5,5.8
	c0,0.1,0,0.2,0,0.3c0,0.1,0,0.2,0,0.3c0,0.2,0.1,0.4,0.3,0.6l10.7,10.7l0,0l0,0L23.3,6.9c0.2-0.3,0.3-0.6,0.2-0.9c0-0.1,0-0.3,0-0.5
	c0.1-0.3,0-0.7-0.2-0.9c-0.4-0.4-0.9-0.4-1.3,0l-9.5,9.5L3.1,4.6z"/>
</svg>
