<?xml version="1.0" encoding="utf-8"?>
<!-- Generator: Adobe Illustrator 23.0.0, SVG Export Plug-In . SVG Version: 6.00 Build 0)  -->
<svg version="1.1" id="返回_part2" xmlns="http://www.w3.org/2000/svg" xmlns:xlink="http://www.w3.org/1999/xlink" x="0px"
	 y="0px" viewBox="0 0 25 22" style="enable-background:new 0 0 25 22;" xml:space="preserve">
<style type="text/css">
	.st0{fill:#F77883;}
</style>
<path class="st0" d="M6.1,20.4c-0.3,0.4-0.3,0.9,0,1.3C6.2,21.9,6.5,22,6.7,22c0.1,0,0.2-0.1,0.3-0.1C7.1,22,7.2,22,7.3,22
	c0.1,0,0.2,0,0.3,0c0.1,0,0.2,0,0.3,0c0.2,0,0.4-0.1,0.6-0.3L19.2,11l0,0l0,0L8.4,0.2C8.1,0,7.8-0.1,7.5,0C7.4,0,7.2,0,7,0
	C6.7-0.1,6.3,0,6.1,0.2c-0.4,0.4-0.4,0.9,0,1.3l9.5,9.5L6.1,20.4z"/>
</svg>
