<?xml version="1.0" encoding="utf-8"?>
<!-- Generator: Adobe Illustrator 23.0.0, SVG Export Plug-In . SVG Version: 6.00 Build 0)  -->
<svg version="1.1" xmlns="http://www.w3.org/2000/svg" xmlns:xlink="http://www.w3.org/1999/xlink" x="0px" y="0px"
	 viewBox="0 0 22 22" style="enable-background:new 0 0 22 22;" xml:space="preserve">
<style type="text/css">
	.st0{fill:#040000;}
	.st1{fill:none;stroke:#231815;stroke-width:9;stroke-linecap:round;stroke-miterlimit:10;}
	.st2{fill:#231815;}
	.st3{fill:none;stroke:#231815;stroke-width:10;stroke-linecap:round;stroke-miterlimit:10;}
	.st4{fill:#1B1C1A;stroke:#231815;stroke-width:5;stroke-miterlimit:10;}
	.st5{fill:none;stroke:#040000;stroke-width:11;stroke-miterlimit:10;}
	.st6{fill:none;stroke:#040000;stroke-width:11;stroke-linecap:round;stroke-miterlimit:10;}
	.st7{fill:none;stroke:#040000;stroke-width:9;stroke-linecap:round;stroke-miterlimit:10;}
	.st8{fill:none;stroke:#040000;stroke-width:8;stroke-miterlimit:10;}
	.st9{fill:#F5946C;}
	.st10{opacity:0.5;fill:#F5946C;}
	.st11{fill:#FFFFFF;}
	.st12{fill:#FFA4A4;}
	.st13{opacity:0.2;fill:url(#SVGID_1_);}
	.st14{fill:url(#SVGID_2_);}
	.st15{fill:url(#SVGID_3_);}
	.st16{fill:#F8F8F8;}
	.st17{fill:none;stroke:#BCBCBC;stroke-width:3;stroke-linecap:round;stroke-miterlimit:10;}
	.st18{fill:#E5E5E5;}
	.st19{fill:#D3D3D3;}
	.st20{fill:#FFFFFC;}
	.st21{fill:#C1ECBE;}
	.st22{fill:#BCBCBC;}
	.st23{fill:#D3DCEA;}
	.st24{fill:#E6EAF5;}
	.st25{fill:none;stroke:#AABAC7;stroke-width:3;stroke-linecap:round;stroke-miterlimit:10;}
	.st26{fill:#E6EAF5;stroke:#AABAC7;stroke-width:3;stroke-linecap:round;stroke-miterlimit:10;}
	.st27{fill:none;stroke:#AABAC7;stroke-width:2;stroke-linecap:round;stroke-miterlimit:10;}
	.st28{fill:#A6DDC4;}
	.st29{fill:#BCBCBC;stroke:#BCBCBC;stroke-width:0.5;stroke-linecap:round;stroke-miterlimit:10;}
	.st30{fill:none;stroke:#BCBCBC;stroke-width:4;stroke-linecap:round;stroke-miterlimit:10;}
	.st31{fill:#F4F7F9;}
	.st32{fill:#F3F4F5;}
	.st33{fill:none;stroke:#AABAC7;stroke-width:3;stroke-miterlimit:10;}
	.st34{fill:#AABAC7;}
	.st35{fill:#AABAC7;stroke:#AABAC7;stroke-width:0.5;stroke-linecap:round;stroke-miterlimit:10;}
	.st36{fill:#AABAC7;stroke:#AABAC7;stroke-width:4;stroke-linecap:round;stroke-miterlimit:10;}
	.st37{fill:#FFF5F7;}
	.st38{fill:none;stroke:#6D7F89;stroke-width:3;stroke-linecap:round;stroke-miterlimit:10;}
	.st39{fill:#FEF4F0;}
	.st40{fill:none;stroke:#6D7F89;stroke-width:3;stroke-miterlimit:10;}
	.st41{fill:#FCECE3;}
	.st42{fill:#FFB5C7;}
	.st43{fill:#FF6C8F;}
	.st44{fill:#F980C8;}
	.st45{fill:#F8F5FE;}
	.st46{fill:#D9C5F7;}
	.st47{fill:#BD9BF2;}
	.st48{fill:#E590F5;}
	.st49{fill:#F4917A;}
	.st50{fill:#FFC197;}
	.st51{fill:#6D7F89;}
	.st52{fill:#FBC378;}
	.st53{fill:#6D7F89;stroke:#6D7F89;stroke-width:0.5;stroke-linecap:round;stroke-miterlimit:10;}
	.st54{fill:none;stroke:#6D7F89;stroke-width:4;stroke-linecap:round;stroke-miterlimit:10;}
	.st55{fill:#FCCF93;}
	.st56{fill:#FBD5C6;}
	.st57{fill:#F7A989;}
	.st58{fill:#52C94B;}
	.st59{fill:#9BE296;}
	.st60{fill:#47A537;}
	.st61{fill:#D7EFD5;}
	.st62{fill:#EDF9ED;}
	.st63{fill:#EAECEF;}
	.st64{fill:#CECECE;}
	.st65{fill:#60D7FF;}
	.st66{fill:#BDE0F9;}
	.st67{fill:#E7F1FA;}
	.st68{fill:#79B9F2;}
	.st69{fill:#ED6EFF;}
	.st70{opacity:0.85;}
	.st71{opacity:0.7;}
	.st72{opacity:0.2;fill:#FFFFFF;}
	.st73{fill:url(#SVGID_4_);}
	.st74{opacity:0.6;}
	.st75{fill:url(#SVGID_5_);}
	.st76{opacity:0.2;fill:url(#SVGID_6_);}
	.st77{fill:url(#SVGID_7_);}
	.st78{fill:url(#SVGID_8_);}
	.st79{opacity:0.2;fill:url(#SVGID_9_);}
	.st80{fill:url(#SVGID_10_);}
	.st81{fill:#9EEB9A;}
	.st82{fill:url(#SVGID_11_);}
	.st83{fill:url(#SVGID_12_);}
	.st84{opacity:0.2;fill:url(#SVGID_13_);}
	.st85{fill:url(#SVGID_14_);}
	.st86{fill:url(#SVGID_15_);}
	.st87{fill:url(#SVGID_16_);}
	.st88{opacity:0.6;fill:url(#SVGID_17_);}
	.st89{opacity:0.85;fill:url(#SVGID_18_);}
	.st90{opacity:0.6;fill:url(#SVGID_19_);}
	.st91{opacity:0.6;fill:url(#SVGID_20_);}
	.st92{opacity:0.6;fill:url(#SVGID_21_);}
	.st93{opacity:0.2;fill:url(#SVGID_22_);}
	.st94{fill:url(#SVGID_23_);}
	.st95{opacity:0.6;fill:url(#SVGID_24_);}
	.st96{opacity:0.85;fill:url(#SVGID_25_);}
	.st97{opacity:0.6;fill:url(#SVGID_26_);}
	.st98{opacity:0.6;fill:url(#SVGID_27_);}
	.st99{opacity:0.6;fill:url(#SVGID_28_);}
	.st100{fill:none;stroke:#000000;stroke-width:1.75;stroke-miterlimit:10;}
	.st101{fill:none;stroke:#000000;stroke-width:1.75;stroke-linecap:round;stroke-miterlimit:10;}
	.st102{display:none;}
	.st103{display:inline;opacity:0.5;}
	.st104{display:inline;opacity:0.5;fill:#F5946C;}
	.st105{display:inline;}
	.st106{display:inline;fill:#F5946C;}
	.st107{opacity:0.5;}
	.st108{display:inline;opacity:0.65;fill:#DB7777;}
</style>
<g id="圖層_1">
</g>
<g id="圖層_2">
	<g>
		<g>
			<path class="st11" d="M17,11c-1.3,0-2.4,1.1-2.4,2.4s1.1,2.4,2.4,2.4h3.4c0,0,0,0,0,0c0,0,0,0,0,0c0.4,0,0.8-0.4,0.8-0.8V8.7
				c0-1.1-0.5-2-1.3-2.6l-2.7-4.5c-0.1-0.2-0.3-0.3-0.5-0.4c-0.2,0-0.4,0-0.6,0.1l-2,1.3l-0.9-1.5c-0.1-0.2-0.3-0.3-0.5-0.4
				c-0.2-0.1-0.4,0-0.6,0.1L4.3,5.5H3.1c-0.4,0-0.8-0.4-0.8-0.8c0-0.4,0.4-0.8,0.8-0.8h1.5c0.4,0,0.8-0.4,0.8-0.8S5,2.3,4.6,2.3H3.1
				C2,2.3,1,3.1,0.7,4.2c0,0.1-0.1,0.2-0.1,0.3v0.2v0v13.3c0,1.8,1.4,3.2,3.2,3.2h14.2c1.4,0,2.6-0.9,3.1-2.2c0.1-0.4-0.1-0.9-0.5-1
				c-0.4-0.1-0.9,0.1-1,0.5c-0.2,0.7-0.8,1.1-1.5,1.1H3.9c-0.9,0-1.6-0.7-1.6-1.6V7c0.3,0.1,0.5,0.1,0.8,0.1h15
				c0.9,0,1.6,0.7,1.6,1.6V11H17z M19.7,14.3H17c-0.4,0-0.8-0.4-0.8-0.8c0-0.4,0.4-0.8,0.8-0.8h2.7V14.3z M7.4,5.5l4.8-2.9l0.9,1.5
				c0,0,0,0.1,0.1,0.1c0,0,0,0.1,0.1,0.1l0.7,1.3H7.4z M15.8,5.5L14.9,4l1.4-0.8l1.4,2.4H15.8z"/>
		</g>
	</g>
</g>
<g id="圖層_3" class="st102">
	<g class="st105">
		<g>
			<g>
				<path class="st10" d="M20,6.2l-2.8-4.6c-0.1-0.2-0.3-0.3-0.5-0.4c-0.2,0-0.4,0-0.6,0.1l-2,1.3l-0.9-1.5
					c-0.1-0.2-0.3-0.3-0.5-0.4c-0.2-0.1-0.4,0-0.6,0.1L4.3,5.5l3.1,0l4.8-2.9L13.1,4c0,0,0,0.1,0.1,0.1c0,0,0,0.1,0.1,0.1L14,5.6
					l1.9,0L14.9,4l1.4-0.8l1.5,2.4C17.7,5.6,19.2,5.8,20,6.2z M4.6,3.9"/>
			</g>
		</g>
		<g>
			<g>
				<path class="st9" d="M17.7,5.5h-1.9l-1.9,0H7.4l-3.1,0H3.1c-0.4,0-0.8-0.4-0.8-0.8C2.3,4.3,2.7,4,3.1,4h1.5C5,4,5.4,3.6,5.4,3.1
					S5,2.3,4.6,2.3H3.1C2,2.3,1,3.1,0.7,4.2c0,0.1-0.1,0.2-0.1,0.3v0.2v0v13.3c0,1.8,1.4,3.2,3.2,3.2h14.2c1.4,0,2.6-0.9,3.1-2.2
					c0.1-0.4-0.1-0.9-0.5-1c-0.4-0.1-0.9,0.1-1,0.5c-0.2,0.7-0.8,1.1-1.5,1.1H3.9c-0.9,0-1.6-0.7-1.6-1.6V7c0.3,0.1,0.5,0.1,0.8,0.1
					h15c0.9,0,1.6,0.7,1.6,1.6V11H17c-1.3,0-2.4,1.1-2.4,2.4s1.1,2.4,2.4,2.4h3.4c0,0,0,0,0,0c0,0,0,0,0,0c0.4,0,0.8-0.4,0.8-0.8
					V8.8c0-1.1-0.5-2-1.3-2.6C19.2,5.6,17.7,5.5,17.7,5.5z M19.7,14.3H17c-0.4,0-0.8-0.4-0.8-0.8c0-0.4,0.4-0.8,0.8-0.8h2.7V14.3z"
					/>
			</g>
		</g>
	</g>
</g>
</svg>
