<?xml version="1.0" encoding="utf-8"?>
<!-- Generator: Adobe Illustrator 23.0.0, SVG Export Plug-In . SVG Version: 6.00 Build 0)  -->
<svg version="1.1" xmlns="http://www.w3.org/2000/svg" xmlns:xlink="http://www.w3.org/1999/xlink" x="0px" y="0px"
	 viewBox="0 0 22 22" style="enable-background:new 0 0 22 22;" xml:space="preserve">
<style type="text/css">
	.st0{fill:#040000;}
	.st1{fill:none;stroke:#231815;stroke-width:9;stroke-linecap:round;stroke-miterlimit:10;}
	.st2{fill:#231815;}
	.st3{fill:none;stroke:#231815;stroke-width:10;stroke-linecap:round;stroke-miterlimit:10;}
	.st4{fill:#1B1C1A;stroke:#231815;stroke-width:5;stroke-miterlimit:10;}
	.st5{fill:none;stroke:#040000;stroke-width:11;stroke-miterlimit:10;}
	.st6{fill:none;stroke:#040000;stroke-width:11;stroke-linecap:round;stroke-miterlimit:10;}
	.st7{fill:none;stroke:#040000;stroke-width:9;stroke-linecap:round;stroke-miterlimit:10;}
	.st8{fill:none;stroke:#040000;stroke-width:8;stroke-miterlimit:10;}
	.st9{fill:#F5946C;}
	.st10{opacity:0.5;fill:#F5946C;}
	.st11{fill:#FFFFFF;}
	.st12{fill:#FFA4A4;}
	.st13{opacity:0.2;fill:url(#SVGID_1_);}
	.st14{fill:url(#SVGID_2_);}
	.st15{fill:url(#SVGID_3_);}
	.st16{fill:#F8F8F8;}
	.st17{fill:none;stroke:#BCBCBC;stroke-width:3;stroke-linecap:round;stroke-miterlimit:10;}
	.st18{fill:#E5E5E5;}
	.st19{fill:#D3D3D3;}
	.st20{fill:#FFFFFC;}
	.st21{fill:#C1ECBE;}
	.st22{fill:#BCBCBC;}
	.st23{fill:#D3DCEA;}
	.st24{fill:#E6EAF5;}
	.st25{fill:none;stroke:#AABAC7;stroke-width:3;stroke-linecap:round;stroke-miterlimit:10;}
	.st26{fill:#E6EAF5;stroke:#AABAC7;stroke-width:3;stroke-linecap:round;stroke-miterlimit:10;}
	.st27{fill:none;stroke:#AABAC7;stroke-width:2;stroke-linecap:round;stroke-miterlimit:10;}
	.st28{fill:#A6DDC4;}
	.st29{fill:#BCBCBC;stroke:#BCBCBC;stroke-width:0.5;stroke-linecap:round;stroke-miterlimit:10;}
	.st30{fill:none;stroke:#BCBCBC;stroke-width:4;stroke-linecap:round;stroke-miterlimit:10;}
	.st31{fill:#F4F7F9;}
	.st32{fill:#F3F4F5;}
	.st33{fill:none;stroke:#AABAC7;stroke-width:3;stroke-miterlimit:10;}
	.st34{fill:#AABAC7;}
	.st35{fill:#AABAC7;stroke:#AABAC7;stroke-width:0.5;stroke-linecap:round;stroke-miterlimit:10;}
	.st36{fill:#AABAC7;stroke:#AABAC7;stroke-width:4;stroke-linecap:round;stroke-miterlimit:10;}
	.st37{fill:#FFF5F7;}
	.st38{fill:none;stroke:#6D7F89;stroke-width:3;stroke-linecap:round;stroke-miterlimit:10;}
	.st39{fill:#FEF4F0;}
	.st40{fill:none;stroke:#6D7F89;stroke-width:3;stroke-miterlimit:10;}
	.st41{fill:#FCECE3;}
	.st42{fill:#FFB5C7;}
	.st43{fill:#FF6C8F;}
	.st44{fill:#F980C8;}
	.st45{fill:#F8F5FE;}
	.st46{fill:#D9C5F7;}
	.st47{fill:#BD9BF2;}
	.st48{fill:#E590F5;}
	.st49{fill:#F4917A;}
	.st50{fill:#FFC197;}
	.st51{fill:#6D7F89;}
	.st52{fill:#FBC378;}
	.st53{fill:#6D7F89;stroke:#6D7F89;stroke-width:0.5;stroke-linecap:round;stroke-miterlimit:10;}
	.st54{fill:none;stroke:#6D7F89;stroke-width:4;stroke-linecap:round;stroke-miterlimit:10;}
	.st55{fill:#FCCF93;}
	.st56{fill:#FBD5C6;}
	.st57{fill:#F7A989;}
	.st58{fill:#52C94B;}
	.st59{fill:#9BE296;}
	.st60{fill:#47A537;}
	.st61{fill:#D7EFD5;}
	.st62{fill:#EDF9ED;}
	.st63{fill:#EAECEF;}
	.st64{fill:#CECECE;}
	.st65{fill:#60D7FF;}
	.st66{fill:#BDE0F9;}
	.st67{fill:#E7F1FA;}
	.st68{fill:#79B9F2;}
	.st69{fill:#ED6EFF;}
	.st70{opacity:0.85;}
	.st71{opacity:0.7;}
	.st72{opacity:0.2;fill:#FFFFFF;}
	.st73{fill:url(#SVGID_4_);}
	.st74{opacity:0.6;}
	.st75{fill:url(#SVGID_5_);}
	.st76{opacity:0.2;fill:url(#SVGID_6_);}
	.st77{fill:url(#SVGID_7_);}
	.st78{fill:url(#SVGID_8_);}
	.st79{opacity:0.2;fill:url(#SVGID_9_);}
	.st80{fill:url(#SVGID_10_);}
	.st81{fill:#9EEB9A;}
	.st82{fill:url(#SVGID_11_);}
	.st83{fill:url(#SVGID_12_);}
	.st84{opacity:0.2;fill:url(#SVGID_13_);}
	.st85{fill:url(#SVGID_14_);}
	.st86{fill:url(#SVGID_15_);}
	.st87{fill:url(#SVGID_16_);}
	.st88{opacity:0.6;fill:url(#SVGID_17_);}
	.st89{opacity:0.85;fill:url(#SVGID_18_);}
	.st90{opacity:0.6;fill:url(#SVGID_19_);}
	.st91{opacity:0.6;fill:url(#SVGID_20_);}
	.st92{opacity:0.6;fill:url(#SVGID_21_);}
	.st93{opacity:0.2;fill:url(#SVGID_22_);}
	.st94{fill:url(#SVGID_23_);}
	.st95{opacity:0.6;fill:url(#SVGID_24_);}
	.st96{opacity:0.85;fill:url(#SVGID_25_);}
	.st97{opacity:0.6;fill:url(#SVGID_26_);}
	.st98{opacity:0.6;fill:url(#SVGID_27_);}
	.st99{opacity:0.6;fill:url(#SVGID_28_);}
	.st100{fill:none;stroke:#000000;stroke-width:1.75;stroke-miterlimit:10;}
	.st101{fill:none;stroke:#000000;stroke-width:1.75;stroke-linecap:round;stroke-miterlimit:10;}
	.st102{display:none;}
	.st103{display:inline;opacity:0.5;}
	.st104{display:inline;opacity:0.5;fill:#F5946C;}
	.st105{display:inline;}
	.st106{display:inline;fill:#F5946C;}
	.st107{opacity:0.5;}
	.st108{display:inline;opacity:0.65;fill:#DB7777;}
</style>
<g id="圖層_1">
</g>
<g id="圖層_2">
	<g>
		<path class="st11" d="M20.7,11.1L20.7,11.1l-5.1-4.2l0-1.3l-3,0l-2,1.9c-0.3,0.3-0.8,0.3-1.1,0C9.3,7.4,9.2,7.2,9.2,7
			c0-0.2,0.1-0.4,0.2-0.6l1.6-1.6c1.3-1.3,3.1-2.1,5-2.1h5.3V1.1h-5.3c-1.9,0-3.7,0.6-5.2,1.7C9.4,1.7,7.5,1.1,5.6,1.1h-5v1.6h5
			c1.5,0,2.9,0.4,4,1.3L8.3,5.3C7.8,5.7,7.6,6.3,7.6,7c0,0.6,0.3,1.2,0.7,1.6C8.8,9,9.4,9.3,10,9.3c0.6,0,1.2-0.2,1.7-0.7l1.5-1.4
			l0.2,0l6.1,5c0.2,0.3,0.2,0.7,0,0.9c-0.1,0.1-0.3,0.2-0.5,0.2s-0.4-0.1-0.5-0.2l-0.2-0.1c0,0-0.6-0.5-1.1,0c-0.5,0.5,0,1.1,0,1.1
			l0.2,0.2c0.1,0.1,0.2,0.2,0.2,0.2l0,0c0.3,0.3,0.3,0.7,0,0.9c-0.3,0.3-0.7,0.3-1,0l-0.3-0.3c0,0-0.7-0.7-1.2-0.1
			c-0.6,0.6,0.1,1.2,0.1,1.2l0.2,0.2c0.1,0.1,0.2,0.3,0.2,0.5c0,0.1,0,0.3-0.2,0.5c-0.3,0.2-0.7,0.2-1-0.1l0,0l-0.1-0.1
			c0,0-0.7-0.5-1.2-0.1s0.1,1.2,0.1,1.2c0.1,0.1,0.2,0.3,0.2,0.5c0,0.2-0.1,0.3-0.2,0.5c-0.3,0.3-0.7,0.3-1,0l-0.1-0.1
			c0.3-0.8,0.2-1.8-0.5-2.4c-0.3-0.3-0.7-0.5-1.1-0.6c0.1-0.7-0.1-1.4-0.6-1.9c-0.4-0.4-0.9-0.6-1.4-0.6c0-0.5-0.3-1-0.7-1.4
			c-0.4-0.4-0.9-0.6-1.4-0.6c0-0.5-0.3-1-0.7-1.4c-0.9-0.9-2.4-0.9-3.3,0l-1.1,1l0,0c-0.4,0.4-0.7,1-0.7,1.6c0,0.6,0.2,1.1,0.7,1.6
			c0.3,0.3,0.8,0.5,1.2,0.6c0,0.6,0.2,1.2,0.7,1.6c0.4,0.4,1,0.6,1.6,0.6c0,0,0,0,0,0c0.1,0.5,0.3,0.9,0.6,1.3
			c0.4,0.4,1,0.6,1.6,0.6c0,0,0.1,0,0.1,0c0.1,0.5,0.3,0.9,0.7,1.2c0.5,0.4,1.1,0.7,1.7,0.7c0.6,0,1.2-0.2,1.6-0.6
			c0.5,0.4,1,0.6,1.6,0.6c0.6,0,1.2-0.2,1.6-0.6c0.4-0.3,0.6-0.8,0.6-1.3c0.6,0,1.1-0.2,1.6-0.6c0.4-0.4,0.6-0.8,0.6-1.4
			c0.5,0,1.1-0.2,1.5-0.6c0.5-0.4,0.7-1,0.7-1.6c0.4-0.1,0.9-0.3,1.2-0.6C21.6,13.3,21.6,11.9,20.7,11.1z M2.3,12.8
			c0-0.2,0.1-0.3,0.2-0.5l1.1-1l0,0c0.1-0.1,0.3-0.2,0.5-0.2c0.2,0,0.4,0.1,0.5,0.2c0.1,0.1,0.2,0.3,0.2,0.5c0,0.1,0,0.3-0.1,0.4
			c0,0,0,0-0.1,0.1L3.7,13l-0.3,0.3l0,0c-0.1,0.1-0.3,0.2-0.5,0.2c-0.2,0-0.4-0.1-0.5-0.2C2.3,13.1,2.3,12.9,2.3,12.8z M4.4,15.5
			c-0.3-0.3-0.3-0.7,0-0.9l0.5-0.5l0.8-0.8l0,0c0,0,0,0,0.1-0.1C6.1,13,6.4,13,6.7,13.3c0.3,0.3,0.3,0.6,0,0.9l-1.4,1.3
			C5,15.7,4.6,15.7,4.4,15.5z M6.6,17.4c-0.3-0.3-0.3-0.7,0-0.9l1.2-1.1l0,0c0.1-0.1,0.3-0.2,0.5-0.2c0.2,0,0.4,0.1,0.5,0.2
			c0.3,0.3,0.3,0.7,0,0.9l-1.2,1.1l0,0C7.3,17.6,6.9,17.6,6.6,17.4z M9,19.2c-0.1-0.1-0.2-0.3-0.2-0.5c0-0.2,0.1-0.4,0.2-0.5
			l0.5-0.5c0.1-0.1,0.3-0.2,0.5-0.2c0.2,0,0.4,0.1,0.5,0.2c0.3,0.3,0.3,0.7,0,1l-0.4,0.4C9.8,19.5,9.3,19.5,9,19.2z"/>
	</g>
</g>
<g id="圖層_3" class="st102">
	<g class="st105">
		<path class="st10" d="M10.9,2.8C9.4,1.7,7.5,1.1,5.6,1.1h-5v1.6h5c1.5,0,2.9,0.4,4,1.3L10.9,2.8z M13.4,7.1l6.1,5
			c0.2,0.3,0.2,0.7,0,0.9c-0.1,0.1-0.3,0.2-0.5,0.2s-0.4-0.1-0.5-0.2l-0.2-0.1c0,0-0.6-0.5-1.1,0c-0.5,0.5,0,1.1,0,1.1l0.2,0.2
			c0.1,0.1,0.2,0.2,0.2,0.2l0,0c0.3,0.3,0.3,0.7,0,0.9c-0.3,0.3-0.7,0.3-1,0l-0.3-0.3c0,0-0.7-0.7-1.2-0.1c-0.6,0.6,0.1,1.2,0.1,1.2
			l0.2,0.2c0.1,0.1,0.2,0.3,0.2,0.5c0,0.1,0,0.3-0.2,0.5c-0.3,0.2-0.7,0.2-1-0.1l0,0l-0.1-0.1c0,0-0.7-0.5-1.2-0.1s0.1,1.2,0.1,1.2
			c0.1,0.1,0.2,0.3,0.2,0.5c0,0.2-0.1,0.3-0.2,0.5c-0.3,0.3-0.7,0.3-1,0l-0.1-0.1l-1,1.2c0.5,0.4,1,0.6,1.6,0.6
			c0.6,0,1.2-0.2,1.6-0.6c0.4-0.3,0.6-0.8,0.6-1.3c0.6,0,1.1-0.2,1.6-0.6c0.4-0.4,0.6-0.8,0.6-1.4c0.5,0,1.1-0.2,1.5-0.6
			c0.5-0.4,0.7-1,0.7-1.6c0.4-0.1,0.9-0.3,1.2-0.6c0.9-0.9,0.9-2.3,0-3.1l0,0l-5.1-4.2L13.4,7.1z"/>
		<g>
			<path class="st9" d="M15.6,6.9l0-1.3l-3,0l-2,1.9c-0.3,0.3-0.8,0.3-1.1,0C9.3,7.4,9.2,7.2,9.2,7c0-0.2,0.1-0.4,0.2-0.6l1.6-1.6
				c1.3-1.3,3.1-2.1,5-2.1h5.3V1.1h-5.3c-1.9,0-3.7,0.6-5.2,1.7L9.7,3.9L8.3,5.3C7.8,5.7,7.6,6.3,7.6,7c0,0.6,0.3,1.2,0.7,1.6
				C8.8,9,9.4,9.3,10,9.3c0.6,0,1.2-0.2,1.7-0.7l1.5-1.4l0.2,0L15.6,6.9z M12.2,19.1c0.3-0.8,0.2-1.8-0.5-2.4
				c-0.3-0.3-0.7-0.5-1.1-0.6c0.1-0.7-0.1-1.4-0.6-1.9c-0.4-0.4-0.9-0.6-1.4-0.6c0-0.5-0.3-1-0.7-1.4c-0.4-0.4-0.9-0.6-1.4-0.6
				c0-0.5-0.3-1-0.7-1.4c-0.9-0.9-2.4-0.9-3.3,0l-1.1,1l0,0c-0.4,0.4-0.7,1-0.7,1.6c0,0.6,0.2,1.1,0.7,1.6c0.3,0.3,0.8,0.5,1.2,0.6
				c0,0.6,0.2,1.2,0.7,1.6c0.4,0.4,1,0.6,1.6,0.6c0,0,0,0,0,0c0.1,0.5,0.3,0.9,0.6,1.3c0.4,0.4,1,0.6,1.6,0.6c0,0,0.1,0,0.1,0
				c0.1,0.5,0.3,0.9,0.7,1.2c0.5,0.4,1.1,0.7,1.7,0.7c0.6,0,1.2-0.2,1.6-0.6C11.2,20.3,11.8,19.9,12.2,19.1z M2.3,12.8
				c0-0.2,0.1-0.3,0.2-0.5l1.1-1l0,0c0.1-0.1,0.3-0.2,0.5-0.2c0.2,0,0.4,0.1,0.5,0.2c0.1,0.1,0.2,0.3,0.2,0.5c0,0.1,0,0.3-0.1,0.4
				c0,0,0,0-0.1,0.1L3.7,13l-0.3,0.3l0,0c-0.1,0.1-0.3,0.2-0.5,0.2c-0.2,0-0.4-0.1-0.5-0.2C2.3,13.1,2.3,12.9,2.3,12.8z M4.4,15.5
				c-0.3-0.3-0.3-0.7,0-0.9l0.5-0.5l0.8-0.8l0,0c0,0,0,0,0.1-0.1C6.1,13,6.4,13,6.7,13.3c0.3,0.3,0.3,0.6,0,0.9l-1.4,1.3
				C5,15.7,4.6,15.7,4.4,15.5z M6.6,17.4c-0.3-0.3-0.3-0.7,0-0.9l1.2-1.1l0,0c0.1-0.1,0.3-0.2,0.5-0.2c0.2,0,0.4,0.1,0.5,0.2
				c0.3,0.3,0.3,0.7,0,0.9l-1.2,1.1l0,0C7.3,17.6,6.9,17.6,6.6,17.4z M9,19.2c-0.1-0.1-0.2-0.3-0.2-0.5c0-0.2,0.1-0.4,0.2-0.5
				l0.5-0.5c0.1-0.1,0.3-0.2,0.5-0.2c0.2,0,0.4,0.1,0.5,0.2c0.3,0.3,0.3,0.7,0,1l-0.4,0.4C9.8,19.5,9.3,19.5,9,19.2z"/>
		</g>
	</g>
</g>
</svg>
