<?xml version="1.0" encoding="utf-8"?>
<!-- Generator: Adobe Illustrator 23.0.0, SVG Export Plug-In . SVG Version: 6.00 Build 0)  -->
<svg version="1.1" xmlns="http://www.w3.org/2000/svg" xmlns:xlink="http://www.w3.org/1999/xlink" x="0px" y="0px"
	 viewBox="0 0 22 22" style="enable-background:new 0 0 22 22;" xml:space="preserve">
<style type="text/css">
	.st0{fill:#040000;}
	.st1{fill:none;stroke:#231815;stroke-width:9;stroke-linecap:round;stroke-miterlimit:10;}
	.st2{fill:#231815;}
	.st3{fill:none;stroke:#231815;stroke-width:10;stroke-linecap:round;stroke-miterlimit:10;}
	.st4{fill:#1B1C1A;stroke:#231815;stroke-width:5;stroke-miterlimit:10;}
	.st5{fill:none;stroke:#040000;stroke-width:11;stroke-miterlimit:10;}
	.st6{fill:none;stroke:#040000;stroke-width:11;stroke-linecap:round;stroke-miterlimit:10;}
	.st7{fill:none;stroke:#040000;stroke-width:9;stroke-linecap:round;stroke-miterlimit:10;}
	.st8{fill:none;stroke:#040000;stroke-width:8;stroke-miterlimit:10;}
	.st9{fill:#F5946C;}
	.st10{opacity:0.5;fill:#F5946C;}
	.st11{display:none;}
	.st12{display:inline;}
	.st13{fill:#FFFFFF;}
	.st14{fill:#FFA4A4;}
	.st15{display:inline;opacity:0.2;fill:url(#SVGID_1_);}
	.st16{display:inline;fill:url(#SVGID_2_);}
	.st17{display:inline;fill:url(#SVGID_3_);}
	.st18{fill:#F8F8F8;}
	.st19{fill:none;stroke:#BCBCBC;stroke-width:3;stroke-linecap:round;stroke-miterlimit:10;}
	.st20{fill:#E5E5E5;}
	.st21{fill:#D3D3D3;}
	.st22{fill:#FFFFFC;}
	.st23{fill:#C1ECBE;}
	.st24{fill:#BCBCBC;}
	.st25{display:inline;fill:#E5E5E5;}
	.st26{display:inline;fill:#BCBCBC;}
	.st27{fill:#D3DCEA;}
	.st28{fill:#E6EAF5;}
	.st29{fill:none;stroke:#AABAC7;stroke-width:3;stroke-linecap:round;stroke-miterlimit:10;}
	.st30{fill:#E6EAF5;stroke:#AABAC7;stroke-width:3;stroke-linecap:round;stroke-miterlimit:10;}
	.st31{fill:none;stroke:#AABAC7;stroke-width:2;stroke-linecap:round;stroke-miterlimit:10;}
	.st32{fill:#A6DDC4;}
	.st33{fill:#BCBCBC;stroke:#BCBCBC;stroke-width:0.5;stroke-linecap:round;stroke-miterlimit:10;}
	.st34{fill:none;stroke:#BCBCBC;stroke-width:4;stroke-linecap:round;stroke-miterlimit:10;}
	.st35{fill:#F4F7F9;}
	.st36{fill:#F3F4F5;}
	.st37{fill:none;stroke:#AABAC7;stroke-width:3;stroke-miterlimit:10;}
	.st38{fill:#AABAC7;}
	.st39{fill:#AABAC7;stroke:#AABAC7;stroke-width:0.5;stroke-linecap:round;stroke-miterlimit:10;}
	.st40{fill:#AABAC7;stroke:#AABAC7;stroke-width:4;stroke-linecap:round;stroke-miterlimit:10;}
	.st41{fill:#FFF5F7;}
	.st42{fill:none;stroke:#6D7F89;stroke-width:3;stroke-linecap:round;stroke-miterlimit:10;}
	.st43{fill:#FEF4F0;}
	.st44{fill:none;stroke:#6D7F89;stroke-width:3;stroke-miterlimit:10;}
	.st45{fill:#FCECE3;}
	.st46{display:inline;fill:#FFB5C7;}
	.st47{display:inline;fill:#FF6C8F;}
	.st48{display:inline;fill:#FFFFFC;}
	.st49{display:inline;fill:none;stroke:#6D7F89;stroke-width:3;stroke-linecap:round;stroke-miterlimit:10;}
	.st50{display:inline;fill:#F980C8;}
	.st51{fill:#F8F5FE;}
	.st52{display:inline;fill:#D9C5F7;}
	.st53{display:inline;fill:#BD9BF2;}
	.st54{display:inline;fill:#E590F5;}
	.st55{fill:#F4917A;}
	.st56{fill:#FFC197;}
	.st57{fill:#6D7F89;}
	.st58{fill:#FBC378;}
	.st59{display:inline;fill:#F4917A;}
	.st60{display:inline;fill:none;stroke:#6D7F89;stroke-width:3;stroke-miterlimit:10;}
	.st61{display:inline;fill:#FFC197;}
	.st62{fill:#6D7F89;stroke:#6D7F89;stroke-width:0.5;stroke-linecap:round;stroke-miterlimit:10;}
	.st63{fill:none;stroke:#6D7F89;stroke-width:4;stroke-linecap:round;stroke-miterlimit:10;}
	.st64{display:inline;fill:#FBC378;}
	.st65{display:inline;fill:#FCECE3;}
	.st66{display:inline;fill:#FCCF93;}
	.st67{display:inline;fill:#FBD5C6;}
	.st68{display:inline;fill:#FEF4F0;}
	.st69{display:inline;fill:#F7A989;}
	.st70{display:inline;fill:#52C94B;}
	.st71{display:inline;fill:#9BE296;}
	.st72{display:inline;fill:#47A537;}
	.st73{display:inline;fill:#D7EFD5;}
	.st74{fill:#EDF9ED;}
	.st75{display:inline;fill:#C1ECBE;}
	.st76{display:inline;fill:#F8F8F8;}
	.st77{display:inline;fill:#D3D3D3;}
	.st78{display:inline;fill:#EAECEF;}
	.st79{display:inline;fill:#CECECE;}
	.st80{display:inline;fill:#60D7FF;}
	.st81{display:inline;fill:#BDE0F9;}
	.st82{display:inline;fill:#E7F1FA;}
	.st83{display:inline;fill:#79B9F2;}
	.st84{display:inline;fill:#6D7F89;}
	.st85{display:inline;fill:#F8F5FE;}
	.st86{display:inline;fill:#ED6EFF;}
	.st87{display:inline;fill:#FFF5F7;}
	.st88{display:inline;fill:none;stroke:#BCBCBC;stroke-width:3;stroke-linecap:round;stroke-miterlimit:10;}
	.st89{display:inline;opacity:0.85;}
	.st90{display:inline;opacity:0.7;}
	.st91{display:inline;opacity:0.2;fill:#FFFFFF;}
	.st92{fill:url(#SVGID_4_);}
	.st93{display:inline;opacity:0.6;}
	.st94{fill:url(#SVGID_5_);}
	.st95{display:inline;opacity:0.2;fill:url(#SVGID_6_);}
	.st96{fill:url(#SVGID_7_);}
	.st97{fill:url(#SVGID_8_);}
	.st98{display:inline;opacity:0.2;fill:url(#SVGID_9_);}
	.st99{display:inline;fill:url(#SVGID_10_);}
	.st100{display:inline;fill:#9EEB9A;}
	.st101{fill:url(#SVGID_11_);}
	.st102{fill:url(#SVGID_12_);}
	.st103{display:inline;opacity:0.2;fill:url(#SVGID_13_);}
	.st104{fill:url(#SVGID_14_);}
	.st105{fill:url(#SVGID_15_);}
	.st106{fill:url(#SVGID_16_);}
	.st107{display:inline;opacity:0.6;fill:url(#SVGID_17_);}
	.st108{display:inline;opacity:0.85;fill:url(#SVGID_18_);}
	.st109{display:inline;opacity:0.6;fill:url(#SVGID_19_);}
	.st110{display:inline;opacity:0.6;fill:url(#SVGID_20_);}
	.st111{display:inline;opacity:0.6;fill:url(#SVGID_21_);}
	.st112{display:inline;opacity:0.2;fill:url(#SVGID_22_);}
	.st113{fill:url(#SVGID_23_);}
	.st114{display:inline;opacity:0.6;fill:url(#SVGID_24_);}
	.st115{display:inline;opacity:0.85;fill:url(#SVGID_25_);}
	.st116{display:inline;opacity:0.6;fill:url(#SVGID_26_);}
	.st117{display:inline;opacity:0.6;fill:url(#SVGID_27_);}
	.st118{display:inline;opacity:0.6;fill:url(#SVGID_28_);}
	.st119{fill:none;stroke:#000000;stroke-width:1.75;stroke-miterlimit:10;}
	.st120{fill:none;stroke:#000000;stroke-width:1.75;stroke-linecap:round;stroke-miterlimit:10;}
	.st121{display:inline;fill:#FFFFFF;}
	.st122{opacity:0.5;}
	.st123{opacity:0.65;fill:#DB7777;}
</style>
<g id="圖層_1">
</g>
<g id="圖層_2" class="st11">
	<g class="st12">
		<g>
			<path class="st13" d="M17,11c-1.3,0-2.4,1.1-2.4,2.4s1.1,2.4,2.4,2.4h3.4c0,0,0,0,0,0c0,0,0,0,0,0c0.4,0,0.8-0.4,0.8-0.8V8.7
				c0-1.1-0.5-2-1.3-2.6l-2.7-4.5c-0.1-0.2-0.3-0.3-0.5-0.4c-0.2,0-0.4,0-0.6,0.1l-2,1.3l-0.9-1.5c-0.1-0.2-0.3-0.3-0.5-0.4
				c-0.2-0.1-0.4,0-0.6,0.1L4.3,5.5H3.1c-0.4,0-0.8-0.4-0.8-0.8c0-0.4,0.4-0.8,0.8-0.8h1.5c0.4,0,0.8-0.4,0.8-0.8S5,2.3,4.6,2.3H3.1
				C2,2.3,1,3.1,0.7,4.2c0,0.1-0.1,0.2-0.1,0.3v0.2v0v13.3c0,1.8,1.4,3.2,3.2,3.2h14.2c1.4,0,2.6-0.9,3.1-2.2c0.1-0.4-0.1-0.9-0.5-1
				c-0.4-0.1-0.9,0.1-1,0.5c-0.2,0.7-0.8,1.1-1.5,1.1H3.9c-0.9,0-1.6-0.7-1.6-1.6V7c0.3,0.1,0.5,0.1,0.8,0.1h15
				c0.9,0,1.6,0.7,1.6,1.6V11H17z M19.7,14.3H17c-0.4,0-0.8-0.4-0.8-0.8c0-0.4,0.4-0.8,0.8-0.8h2.7V14.3z M7.4,5.5l4.8-2.9l0.9,1.5
				c0,0,0,0.1,0.1,0.1c0,0,0,0.1,0.1,0.1l0.7,1.3H7.4z M15.8,5.5L14.9,4l1.4-0.8l1.4,2.4H15.8z"/>
		</g>
	</g>
</g>
<g id="圖層_3">
	<g>
		<g>
			<g>
				<path class="st10" d="M20,6.2l-2.8-4.6c-0.1-0.2-0.3-0.3-0.5-0.4c-0.2,0-0.4,0-0.6,0.1l-2,1.3l-0.9-1.5
					c-0.1-0.2-0.3-0.3-0.5-0.4c-0.2-0.1-0.4,0-0.6,0.1L4.3,5.5l3.1,0l4.8-2.9L13.1,4c0,0,0,0.1,0.1,0.1c0,0,0,0.1,0.1,0.1L14,5.6
					l1.9,0L14.9,4l1.4-0.8l1.5,2.4C17.7,5.6,19.2,5.8,20,6.2z M4.6,3.9"/>
			</g>
		</g>
		<g>
			<g>
				<path class="st9" d="M17.7,5.5h-1.9l-1.9,0H7.4l-3.1,0H3.1c-0.4,0-0.8-0.4-0.8-0.8C2.3,4.3,2.7,4,3.1,4h1.5C5,4,5.4,3.6,5.4,3.1
					S5,2.3,4.6,2.3H3.1C2,2.3,1,3.1,0.7,4.2c0,0.1-0.1,0.2-0.1,0.3v0.2v0v13.3c0,1.8,1.4,3.2,3.2,3.2h14.2c1.4,0,2.6-0.9,3.1-2.2
					c0.1-0.4-0.1-0.9-0.5-1c-0.4-0.1-0.9,0.1-1,0.5c-0.2,0.7-0.8,1.1-1.5,1.1H3.9c-0.9,0-1.6-0.7-1.6-1.6V7c0.3,0.1,0.5,0.1,0.8,0.1
					h15c0.9,0,1.6,0.7,1.6,1.6V11H17c-1.3,0-2.4,1.1-2.4,2.4s1.1,2.4,2.4,2.4h3.4c0,0,0,0,0,0c0,0,0,0,0,0c0.4,0,0.8-0.4,0.8-0.8
					V8.8c0-1.1-0.5-2-1.3-2.6C19.2,5.6,17.7,5.5,17.7,5.5z M19.7,14.3H17c-0.4,0-0.8-0.4-0.8-0.8c0-0.4,0.4-0.8,0.8-0.8h2.7V14.3z"
					/>
			</g>
		</g>
	</g>
</g>
</svg>
