<?xml version="1.0" encoding="utf-8"?>
<!-- Generator: Adobe Illustrator 23.0.0, SVG Export Plug-In . SVG Version: 6.00 Build 0)  -->
<svg version="1.1" xmlns="http://www.w3.org/2000/svg" xmlns:xlink="http://www.w3.org/1999/xlink" x="0px" y="0px"
	 viewBox="0 0 22 22" style="enable-background:new 0 0 22 22;" xml:space="preserve">
<style type="text/css">
	.st0{fill:#040000;}
	.st1{fill:none;stroke:#231815;stroke-width:9;stroke-linecap:round;stroke-miterlimit:10;}
	.st2{fill:#231815;}
	.st3{fill:none;stroke:#231815;stroke-width:10;stroke-linecap:round;stroke-miterlimit:10;}
	.st4{fill:#1B1C1A;stroke:#231815;stroke-width:5;stroke-miterlimit:10;}
	.st5{fill:none;stroke:#040000;stroke-width:11;stroke-miterlimit:10;}
	.st6{fill:none;stroke:#040000;stroke-width:11;stroke-linecap:round;stroke-miterlimit:10;}
	.st7{fill:none;stroke:#040000;stroke-width:9;stroke-linecap:round;stroke-miterlimit:10;}
	.st8{fill:none;stroke:#040000;stroke-width:8;stroke-miterlimit:10;}
	.st9{fill:#F5946C;}
	.st10{opacity:0.5;fill:#F5946C;}
	.st11{display:none;}
	.st12{display:inline;}
	.st13{fill:#FFFFFF;}
	.st14{fill:#FFA4A4;}
	.st15{display:inline;opacity:0.2;fill:url(#SVGID_1_);}
	.st16{display:inline;fill:url(#SVGID_2_);}
	.st17{display:inline;fill:url(#SVGID_3_);}
	.st18{fill:#F8F8F8;}
	.st19{fill:none;stroke:#BCBCBC;stroke-width:3;stroke-linecap:round;stroke-miterlimit:10;}
	.st20{fill:#E5E5E5;}
	.st21{fill:#D3D3D3;}
	.st22{fill:#FFFFFC;}
	.st23{fill:#C1ECBE;}
	.st24{fill:#BCBCBC;}
	.st25{display:inline;fill:#E5E5E5;}
	.st26{display:inline;fill:#BCBCBC;}
	.st27{fill:#D3DCEA;}
	.st28{fill:#E6EAF5;}
	.st29{fill:none;stroke:#AABAC7;stroke-width:3;stroke-linecap:round;stroke-miterlimit:10;}
	.st30{fill:#E6EAF5;stroke:#AABAC7;stroke-width:3;stroke-linecap:round;stroke-miterlimit:10;}
	.st31{fill:none;stroke:#AABAC7;stroke-width:2;stroke-linecap:round;stroke-miterlimit:10;}
	.st32{fill:#A6DDC4;}
	.st33{fill:#BCBCBC;stroke:#BCBCBC;stroke-width:0.5;stroke-linecap:round;stroke-miterlimit:10;}
	.st34{fill:none;stroke:#BCBCBC;stroke-width:4;stroke-linecap:round;stroke-miterlimit:10;}
	.st35{fill:#F4F7F9;}
	.st36{fill:#F3F4F5;}
	.st37{fill:none;stroke:#AABAC7;stroke-width:3;stroke-miterlimit:10;}
	.st38{fill:#AABAC7;}
	.st39{fill:#AABAC7;stroke:#AABAC7;stroke-width:0.5;stroke-linecap:round;stroke-miterlimit:10;}
	.st40{fill:#AABAC7;stroke:#AABAC7;stroke-width:4;stroke-linecap:round;stroke-miterlimit:10;}
	.st41{fill:#FFF5F7;}
	.st42{fill:none;stroke:#6D7F89;stroke-width:3;stroke-linecap:round;stroke-miterlimit:10;}
	.st43{fill:#FEF4F0;}
	.st44{fill:none;stroke:#6D7F89;stroke-width:3;stroke-miterlimit:10;}
	.st45{fill:#FCECE3;}
	.st46{display:inline;fill:#FFB5C7;}
	.st47{display:inline;fill:#FF6C8F;}
	.st48{display:inline;fill:#FFFFFC;}
	.st49{display:inline;fill:none;stroke:#6D7F89;stroke-width:3;stroke-linecap:round;stroke-miterlimit:10;}
	.st50{display:inline;fill:#F980C8;}
	.st51{fill:#F8F5FE;}
	.st52{display:inline;fill:#D9C5F7;}
	.st53{display:inline;fill:#BD9BF2;}
	.st54{display:inline;fill:#E590F5;}
	.st55{fill:#F4917A;}
	.st56{fill:#FFC197;}
	.st57{fill:#6D7F89;}
	.st58{fill:#FBC378;}
	.st59{display:inline;fill:#F4917A;}
	.st60{display:inline;fill:none;stroke:#6D7F89;stroke-width:3;stroke-miterlimit:10;}
	.st61{display:inline;fill:#FFC197;}
	.st62{fill:#6D7F89;stroke:#6D7F89;stroke-width:0.5;stroke-linecap:round;stroke-miterlimit:10;}
	.st63{fill:none;stroke:#6D7F89;stroke-width:4;stroke-linecap:round;stroke-miterlimit:10;}
	.st64{display:inline;fill:#FBC378;}
	.st65{display:inline;fill:#FCECE3;}
	.st66{display:inline;fill:#FCCF93;}
	.st67{display:inline;fill:#FBD5C6;}
	.st68{display:inline;fill:#FEF4F0;}
	.st69{display:inline;fill:#F7A989;}
	.st70{display:inline;fill:#52C94B;}
	.st71{display:inline;fill:#9BE296;}
	.st72{display:inline;fill:#47A537;}
	.st73{display:inline;fill:#D7EFD5;}
	.st74{fill:#EDF9ED;}
	.st75{display:inline;fill:#C1ECBE;}
	.st76{display:inline;fill:#F8F8F8;}
	.st77{display:inline;fill:#D3D3D3;}
	.st78{display:inline;fill:#EAECEF;}
	.st79{display:inline;fill:#CECECE;}
	.st80{display:inline;fill:#60D7FF;}
	.st81{display:inline;fill:#BDE0F9;}
	.st82{display:inline;fill:#E7F1FA;}
	.st83{display:inline;fill:#79B9F2;}
	.st84{display:inline;fill:#6D7F89;}
	.st85{display:inline;fill:#F8F5FE;}
	.st86{display:inline;fill:#ED6EFF;}
	.st87{display:inline;fill:#FFF5F7;}
	.st88{display:inline;fill:none;stroke:#BCBCBC;stroke-width:3;stroke-linecap:round;stroke-miterlimit:10;}
	.st89{display:inline;opacity:0.85;}
	.st90{display:inline;opacity:0.7;}
	.st91{display:inline;opacity:0.2;fill:#FFFFFF;}
	.st92{fill:url(#SVGID_4_);}
	.st93{display:inline;opacity:0.6;}
	.st94{fill:url(#SVGID_5_);}
	.st95{display:inline;opacity:0.2;fill:url(#SVGID_6_);}
	.st96{fill:url(#SVGID_7_);}
	.st97{fill:url(#SVGID_8_);}
	.st98{display:inline;opacity:0.2;fill:url(#SVGID_9_);}
	.st99{display:inline;fill:url(#SVGID_10_);}
	.st100{display:inline;fill:#9EEB9A;}
	.st101{fill:url(#SVGID_11_);}
	.st102{fill:url(#SVGID_12_);}
	.st103{display:inline;opacity:0.2;fill:url(#SVGID_13_);}
	.st104{fill:url(#SVGID_14_);}
	.st105{fill:url(#SVGID_15_);}
	.st106{fill:url(#SVGID_16_);}
	.st107{display:inline;opacity:0.6;fill:url(#SVGID_17_);}
	.st108{display:inline;opacity:0.85;fill:url(#SVGID_18_);}
	.st109{display:inline;opacity:0.6;fill:url(#SVGID_19_);}
	.st110{display:inline;opacity:0.6;fill:url(#SVGID_20_);}
	.st111{display:inline;opacity:0.6;fill:url(#SVGID_21_);}
	.st112{display:inline;opacity:0.2;fill:url(#SVGID_22_);}
	.st113{fill:url(#SVGID_23_);}
	.st114{display:inline;opacity:0.6;fill:url(#SVGID_24_);}
	.st115{display:inline;opacity:0.85;fill:url(#SVGID_25_);}
	.st116{display:inline;opacity:0.6;fill:url(#SVGID_26_);}
	.st117{display:inline;opacity:0.6;fill:url(#SVGID_27_);}
	.st118{display:inline;opacity:0.6;fill:url(#SVGID_28_);}
	.st119{fill:none;stroke:#000000;stroke-width:1.75;stroke-miterlimit:10;}
	.st120{fill:none;stroke:#000000;stroke-width:1.75;stroke-linecap:round;stroke-miterlimit:10;}
	.st121{display:inline;fill:#FFFFFF;}
	.st122{opacity:0.5;}
	.st123{opacity:0.65;fill:#DB7777;}
</style>
<g id="圖層_1">
</g>
<g id="圖層_2" class="st11">
	<g class="st12">
		<path class="st13" d="M20.7,11.1L20.7,11.1l-5.1-4.2l0-1.3l-3,0l-2,1.9c-0.3,0.3-0.8,0.3-1.1,0C9.3,7.4,9.2,7.2,9.2,7
			c0-0.2,0.1-0.4,0.2-0.6l1.6-1.6c1.3-1.3,3.1-2.1,5-2.1h5.3V1.1h-5.3c-1.9,0-3.7,0.6-5.2,1.7C9.4,1.7,7.5,1.1,5.6,1.1h-5v1.6h5
			c1.5,0,2.9,0.4,4,1.3L8.3,5.3C7.8,5.7,7.6,6.3,7.6,7c0,0.6,0.3,1.2,0.7,1.6C8.8,9,9.4,9.3,10,9.3c0.6,0,1.2-0.2,1.7-0.7l1.5-1.4
			l0.2,0l6.1,5c0.2,0.3,0.2,0.7,0,0.9c-0.1,0.1-0.3,0.2-0.5,0.2s-0.4-0.1-0.5-0.2l-0.2-0.1c0,0-0.6-0.5-1.1,0c-0.5,0.5,0,1.1,0,1.1
			l0.2,0.2c0.1,0.1,0.2,0.2,0.2,0.2l0,0c0.3,0.3,0.3,0.7,0,0.9c-0.3,0.3-0.7,0.3-1,0l-0.3-0.3c0,0-0.7-0.7-1.2-0.1
			c-0.6,0.6,0.1,1.2,0.1,1.2l0.2,0.2c0.1,0.1,0.2,0.3,0.2,0.5c0,0.1,0,0.3-0.2,0.5c-0.3,0.2-0.7,0.2-1-0.1l0,0l-0.1-0.1
			c0,0-0.7-0.5-1.2-0.1s0.1,1.2,0.1,1.2c0.1,0.1,0.2,0.3,0.2,0.5c0,0.2-0.1,0.3-0.2,0.5c-0.3,0.3-0.7,0.3-1,0l-0.1-0.1
			c0.3-0.8,0.2-1.8-0.5-2.4c-0.3-0.3-0.7-0.5-1.1-0.6c0.1-0.7-0.1-1.4-0.6-1.9c-0.4-0.4-0.9-0.6-1.4-0.6c0-0.5-0.3-1-0.7-1.4
			c-0.4-0.4-0.9-0.6-1.4-0.6c0-0.5-0.3-1-0.7-1.4c-0.9-0.9-2.4-0.9-3.3,0l-1.1,1l0,0c-0.4,0.4-0.7,1-0.7,1.6c0,0.6,0.2,1.1,0.7,1.6
			c0.3,0.3,0.8,0.5,1.2,0.6c0,0.6,0.2,1.2,0.7,1.6c0.4,0.4,1,0.6,1.6,0.6c0,0,0,0,0,0c0.1,0.5,0.3,0.9,0.6,1.3
			c0.4,0.4,1,0.6,1.6,0.6c0,0,0.1,0,0.1,0c0.1,0.5,0.3,0.9,0.7,1.2c0.5,0.4,1.1,0.7,1.7,0.7c0.6,0,1.2-0.2,1.6-0.6
			c0.5,0.4,1,0.6,1.6,0.6c0.6,0,1.2-0.2,1.6-0.6c0.4-0.3,0.6-0.8,0.6-1.3c0.6,0,1.1-0.2,1.6-0.6c0.4-0.4,0.6-0.8,0.6-1.4
			c0.5,0,1.1-0.2,1.5-0.6c0.5-0.4,0.7-1,0.7-1.6c0.4-0.1,0.9-0.3,1.2-0.6C21.6,13.3,21.6,11.9,20.7,11.1z M2.3,12.8
			c0-0.2,0.1-0.3,0.2-0.5l1.1-1l0,0c0.1-0.1,0.3-0.2,0.5-0.2c0.2,0,0.4,0.1,0.5,0.2c0.1,0.1,0.2,0.3,0.2,0.5c0,0.1,0,0.3-0.1,0.4
			c0,0,0,0-0.1,0.1L3.7,13l-0.3,0.3l0,0c-0.1,0.1-0.3,0.2-0.5,0.2c-0.2,0-0.4-0.1-0.5-0.2C2.3,13.1,2.3,12.9,2.3,12.8z M4.4,15.5
			c-0.3-0.3-0.3-0.7,0-0.9l0.5-0.5l0.8-0.8l0,0c0,0,0,0,0.1-0.1C6.1,13,6.4,13,6.7,13.3c0.3,0.3,0.3,0.6,0,0.9l-1.4,1.3
			C5,15.7,4.6,15.7,4.4,15.5z M6.6,17.4c-0.3-0.3-0.3-0.7,0-0.9l1.2-1.1l0,0c0.1-0.1,0.3-0.2,0.5-0.2c0.2,0,0.4,0.1,0.5,0.2
			c0.3,0.3,0.3,0.7,0,0.9l-1.2,1.1l0,0C7.3,17.6,6.9,17.6,6.6,17.4z M9,19.2c-0.1-0.1-0.2-0.3-0.2-0.5c0-0.2,0.1-0.4,0.2-0.5
			l0.5-0.5c0.1-0.1,0.3-0.2,0.5-0.2c0.2,0,0.4,0.1,0.5,0.2c0.3,0.3,0.3,0.7,0,1l-0.4,0.4C9.8,19.5,9.3,19.5,9,19.2z"/>
	</g>
</g>
<g id="圖層_3">
	<g>
		<path class="st10" d="M10.9,2.8C9.4,1.7,7.5,1.1,5.6,1.1h-5v1.6h5c1.5,0,2.9,0.4,4,1.3L10.9,2.8z M13.4,7.1l6.1,5
			c0.2,0.3,0.2,0.7,0,0.9c-0.1,0.1-0.3,0.2-0.5,0.2s-0.4-0.1-0.5-0.2l-0.2-0.1c0,0-0.6-0.5-1.1,0c-0.5,0.5,0,1.1,0,1.1l0.2,0.2
			c0.1,0.1,0.2,0.2,0.2,0.2l0,0c0.3,0.3,0.3,0.7,0,0.9c-0.3,0.3-0.7,0.3-1,0l-0.3-0.3c0,0-0.7-0.7-1.2-0.1c-0.6,0.6,0.1,1.2,0.1,1.2
			l0.2,0.2c0.1,0.1,0.2,0.3,0.2,0.5c0,0.1,0,0.3-0.2,0.5c-0.3,0.2-0.7,0.2-1-0.1l0,0l-0.1-0.1c0,0-0.7-0.5-1.2-0.1s0.1,1.2,0.1,1.2
			c0.1,0.1,0.2,0.3,0.2,0.5c0,0.2-0.1,0.3-0.2,0.5c-0.3,0.3-0.7,0.3-1,0l-0.1-0.1l-1,1.2c0.5,0.4,1,0.6,1.6,0.6
			c0.6,0,1.2-0.2,1.6-0.6c0.4-0.3,0.6-0.8,0.6-1.3c0.6,0,1.1-0.2,1.6-0.6c0.4-0.4,0.6-0.8,0.6-1.4c0.5,0,1.1-0.2,1.5-0.6
			c0.5-0.4,0.7-1,0.7-1.6c0.4-0.1,0.9-0.3,1.2-0.6c0.9-0.9,0.9-2.3,0-3.1l0,0l-5.1-4.2L13.4,7.1z"/>
		<g>
			<path class="st9" d="M15.6,6.9l0-1.3l-3,0l-2,1.9c-0.3,0.3-0.8,0.3-1.1,0C9.3,7.4,9.2,7.2,9.2,7c0-0.2,0.1-0.4,0.2-0.6l1.6-1.6
				c1.3-1.3,3.1-2.1,5-2.1h5.3V1.1h-5.3c-1.9,0-3.7,0.6-5.2,1.7L9.7,3.9L8.3,5.3C7.8,5.7,7.6,6.3,7.6,7c0,0.6,0.3,1.2,0.7,1.6
				C8.8,9,9.4,9.3,10,9.3c0.6,0,1.2-0.2,1.7-0.7l1.5-1.4l0.2,0L15.6,6.9z M12.2,19.1c0.3-0.8,0.2-1.8-0.5-2.4
				c-0.3-0.3-0.7-0.5-1.1-0.6c0.1-0.7-0.1-1.4-0.6-1.9c-0.4-0.4-0.9-0.6-1.4-0.6c0-0.5-0.3-1-0.7-1.4c-0.4-0.4-0.9-0.6-1.4-0.6
				c0-0.5-0.3-1-0.7-1.4c-0.9-0.9-2.4-0.9-3.3,0l-1.1,1l0,0c-0.4,0.4-0.7,1-0.7,1.6c0,0.6,0.2,1.1,0.7,1.6c0.3,0.3,0.8,0.5,1.2,0.6
				c0,0.6,0.2,1.2,0.7,1.6c0.4,0.4,1,0.6,1.6,0.6c0,0,0,0,0,0c0.1,0.5,0.3,0.9,0.6,1.3c0.4,0.4,1,0.6,1.6,0.6c0,0,0.1,0,0.1,0
				c0.1,0.5,0.3,0.9,0.7,1.2c0.5,0.4,1.1,0.7,1.7,0.7c0.6,0,1.2-0.2,1.6-0.6C11.2,20.3,11.8,19.9,12.2,19.1z M2.3,12.8
				c0-0.2,0.1-0.3,0.2-0.5l1.1-1l0,0c0.1-0.1,0.3-0.2,0.5-0.2c0.2,0,0.4,0.1,0.5,0.2c0.1,0.1,0.2,0.3,0.2,0.5c0,0.1,0,0.3-0.1,0.4
				c0,0,0,0-0.1,0.1L3.7,13l-0.3,0.3l0,0c-0.1,0.1-0.3,0.2-0.5,0.2c-0.2,0-0.4-0.1-0.5-0.2C2.3,13.1,2.3,12.9,2.3,12.8z M4.4,15.5
				c-0.3-0.3-0.3-0.7,0-0.9l0.5-0.5l0.8-0.8l0,0c0,0,0,0,0.1-0.1C6.1,13,6.4,13,6.7,13.3c0.3,0.3,0.3,0.6,0,0.9l-1.4,1.3
				C5,15.7,4.6,15.7,4.4,15.5z M6.6,17.4c-0.3-0.3-0.3-0.7,0-0.9l1.2-1.1l0,0c0.1-0.1,0.3-0.2,0.5-0.2c0.2,0,0.4,0.1,0.5,0.2
				c0.3,0.3,0.3,0.7,0,0.9l-1.2,1.1l0,0C7.3,17.6,6.9,17.6,6.6,17.4z M9,19.2c-0.1-0.1-0.2-0.3-0.2-0.5c0-0.2,0.1-0.4,0.2-0.5
				l0.5-0.5c0.1-0.1,0.3-0.2,0.5-0.2c0.2,0,0.4,0.1,0.5,0.2c0.3,0.3,0.3,0.7,0,1l-0.4,0.4C9.8,19.5,9.3,19.5,9,19.2z"/>
		</g>
	</g>
</g>
</svg>
