<?xml version="1.0" encoding="utf-8"?>
<!-- Generator: Adobe Illustrator 23.0.0, SVG Export Plug-In . SVG Version: 6.00 Build 0)  -->
<svg version="1.1" xmlns="http://www.w3.org/2000/svg" xmlns:xlink="http://www.w3.org/1999/xlink" x="0px" y="0px"
	 viewBox="0 0 22 22" style="enable-background:new 0 0 22 22;" xml:space="preserve">
<style type="text/css">
	.st0{fill:#040000;}
	.st1{fill:none;stroke:#231815;stroke-width:9;stroke-linecap:round;stroke-miterlimit:10;}
	.st2{fill:#231815;}
	.st3{fill:none;stroke:#231815;stroke-width:10;stroke-linecap:round;stroke-miterlimit:10;}
	.st4{fill:#1B1C1A;stroke:#231815;stroke-width:5;stroke-miterlimit:10;}
	.st5{fill:none;stroke:#040000;stroke-width:11;stroke-miterlimit:10;}
	.st6{fill:none;stroke:#040000;stroke-width:11;stroke-linecap:round;stroke-miterlimit:10;}
	.st7{fill:none;stroke:#040000;stroke-width:9;stroke-linecap:round;stroke-miterlimit:10;}
	.st8{fill:none;stroke:#040000;stroke-width:8;stroke-miterlimit:10;}
	.st9{fill:#F5946C;}
	.st10{opacity:0.5;fill:#F5946C;}
	.st11{fill:#FFFFFF;}
	.st12{fill:#FFA4A4;}
	.st13{opacity:0.2;fill:url(#SVGID_1_);}
	.st14{fill:url(#SVGID_2_);}
	.st15{fill:url(#SVGID_3_);}
	.st16{fill:#F8F8F8;}
	.st17{fill:none;stroke:#BCBCBC;stroke-width:3;stroke-linecap:round;stroke-miterlimit:10;}
	.st18{fill:#E5E5E5;}
	.st19{fill:#D3D3D3;}
	.st20{fill:#FFFFFC;}
	.st21{fill:#C1ECBE;}
	.st22{fill:#BCBCBC;}
	.st23{fill:#D3DCEA;}
	.st24{fill:#E6EAF5;}
	.st25{fill:none;stroke:#AABAC7;stroke-width:3;stroke-linecap:round;stroke-miterlimit:10;}
	.st26{fill:#E6EAF5;stroke:#AABAC7;stroke-width:3;stroke-linecap:round;stroke-miterlimit:10;}
	.st27{fill:none;stroke:#AABAC7;stroke-width:2;stroke-linecap:round;stroke-miterlimit:10;}
	.st28{fill:#A6DDC4;}
	.st29{fill:#BCBCBC;stroke:#BCBCBC;stroke-width:0.5;stroke-linecap:round;stroke-miterlimit:10;}
	.st30{fill:none;stroke:#BCBCBC;stroke-width:4;stroke-linecap:round;stroke-miterlimit:10;}
	.st31{fill:#F4F7F9;}
	.st32{fill:#F3F4F5;}
	.st33{fill:none;stroke:#AABAC7;stroke-width:3;stroke-miterlimit:10;}
	.st34{fill:#AABAC7;}
	.st35{fill:#AABAC7;stroke:#AABAC7;stroke-width:0.5;stroke-linecap:round;stroke-miterlimit:10;}
	.st36{fill:#AABAC7;stroke:#AABAC7;stroke-width:4;stroke-linecap:round;stroke-miterlimit:10;}
	.st37{fill:#FFF5F7;}
	.st38{fill:none;stroke:#6D7F89;stroke-width:3;stroke-linecap:round;stroke-miterlimit:10;}
	.st39{fill:#FEF4F0;}
	.st40{fill:none;stroke:#6D7F89;stroke-width:3;stroke-miterlimit:10;}
	.st41{fill:#FCECE3;}
	.st42{fill:#FFB5C7;}
	.st43{fill:#FF6C8F;}
	.st44{fill:#F980C8;}
	.st45{fill:#F8F5FE;}
	.st46{fill:#D9C5F7;}
	.st47{fill:#BD9BF2;}
	.st48{fill:#E590F5;}
	.st49{fill:#F4917A;}
	.st50{fill:#FFC197;}
	.st51{fill:#6D7F89;}
	.st52{fill:#FBC378;}
	.st53{fill:#6D7F89;stroke:#6D7F89;stroke-width:0.5;stroke-linecap:round;stroke-miterlimit:10;}
	.st54{fill:none;stroke:#6D7F89;stroke-width:4;stroke-linecap:round;stroke-miterlimit:10;}
	.st55{fill:#FCCF93;}
	.st56{fill:#FBD5C6;}
	.st57{fill:#F7A989;}
	.st58{fill:#52C94B;}
	.st59{fill:#9BE296;}
	.st60{fill:#47A537;}
	.st61{fill:#D7EFD5;}
	.st62{fill:#EDF9ED;}
	.st63{fill:#EAECEF;}
	.st64{fill:#CECECE;}
	.st65{fill:#60D7FF;}
	.st66{fill:#BDE0F9;}
	.st67{fill:#E7F1FA;}
	.st68{fill:#79B9F2;}
	.st69{fill:#ED6EFF;}
	.st70{opacity:0.85;}
	.st71{opacity:0.7;}
	.st72{opacity:0.2;fill:#FFFFFF;}
	.st73{fill:url(#SVGID_4_);}
	.st74{opacity:0.6;}
	.st75{fill:url(#SVGID_5_);}
	.st76{opacity:0.2;fill:url(#SVGID_6_);}
	.st77{fill:url(#SVGID_7_);}
	.st78{fill:url(#SVGID_8_);}
	.st79{opacity:0.2;fill:url(#SVGID_9_);}
	.st80{fill:url(#SVGID_10_);}
	.st81{fill:#9EEB9A;}
	.st82{fill:url(#SVGID_11_);}
	.st83{fill:url(#SVGID_12_);}
	.st84{opacity:0.2;fill:url(#SVGID_13_);}
	.st85{fill:url(#SVGID_14_);}
	.st86{fill:url(#SVGID_15_);}
	.st87{fill:url(#SVGID_16_);}
	.st88{opacity:0.6;fill:url(#SVGID_17_);}
	.st89{opacity:0.85;fill:url(#SVGID_18_);}
	.st90{opacity:0.6;fill:url(#SVGID_19_);}
	.st91{opacity:0.6;fill:url(#SVGID_20_);}
	.st92{opacity:0.6;fill:url(#SVGID_21_);}
	.st93{opacity:0.2;fill:url(#SVGID_22_);}
	.st94{fill:url(#SVGID_23_);}
	.st95{opacity:0.6;fill:url(#SVGID_24_);}
	.st96{opacity:0.85;fill:url(#SVGID_25_);}
	.st97{opacity:0.6;fill:url(#SVGID_26_);}
	.st98{opacity:0.6;fill:url(#SVGID_27_);}
	.st99{opacity:0.6;fill:url(#SVGID_28_);}
	.st100{fill:none;stroke:#000000;stroke-width:1.75;stroke-miterlimit:10;}
	.st101{fill:none;stroke:#000000;stroke-width:1.75;stroke-linecap:round;stroke-miterlimit:10;}
	.st102{display:none;}
	.st103{display:inline;opacity:0.5;}
	.st104{display:inline;opacity:0.5;fill:#F5946C;}
	.st105{display:inline;}
	.st106{display:inline;fill:#F5946C;}
	.st107{opacity:0.5;}
	.st108{display:inline;opacity:0.65;fill:#DB7777;}
</style>
<g id="圖層_1">
</g>
<g id="圖層_2">
	<g>
		<path class="st11" d="M18.1,1.2H3.9c-1.8,0-3.2,1.4-3.2,3.2v9.9c0,1.8,1.4,3.2,3.2,3.2h5.6c0.4,0,0.8-0.4,0.8-0.8
			c0-0.4-0.4-0.8-0.8-0.8H3.9c-0.9,0-1.6-0.7-1.6-1.6V4.6l7,5.6c0.5,0.3,1.1,0.5,1.7,0.5c0.6,0,1.2-0.2,1.7-0.5l7-5.6v5.5
			c0,0.4,0.4,0.8,0.8,0.8c0.4,0,0.8-0.4,0.8-0.8V4.5C21.3,2.7,19.9,1.2,18.1,1.2z M11.8,8.8c-0.5,0.3-1.2,0.3-1.7,0L3,3.2
			C3.2,3,3.5,2.8,3.9,2.8h14.2c0.3,0,0.7,0.1,0.9,0.3L11.8,8.8z"/>
		<path class="st11" d="M20.8,16.8c-0.1,0-0.6-0.3-0.6-0.9v-1.2c0-1.7-1.2-3.1-2.8-3.5v-0.5c0-0.4-0.4-0.8-0.8-0.8
			c-0.5,0-0.8,0.4-0.8,0.8v0.5c-1.6,0.4-2.8,1.8-2.8,3.5v1.2c0,0.6-0.5,0.9-0.6,0.9c-0.3,0.1-0.5,0.4-0.5,0.8c0,0.5,0.2,1.1,0.5,1.5
			c0.4,0.6,1.1,0.9,1.8,0.9h1.7c0,0.4,0.4,0.8,0.8,0.8c0.4,0,0.8-0.4,0.8-0.8h1.7c0.7,0,1.4-0.3,1.8-0.9c0.3-0.4,0.5-1,0.5-1.5
			C21.3,17.2,21.1,16.9,20.8,16.8z M19.1,18.3h-5c-0.3,0-0.5-0.2-0.5-0.4c0.5-0.4,1.1-1.1,1.1-2.1v-1.2c0-1.1,0.9-2,2-2c0,0,0,0,0,0
			h0c1.1,0,2,0.9,2,2v1.2c0,1,0.5,1.7,1.1,2.1C19.5,18.1,19.4,18.3,19.1,18.3z"/>
	</g>
</g>
<g id="圖層_3" class="st102">
	<g class="st105">
		<path class="st9" d="M18.1,1.2H3.9c-1.8,0-3.2,1.4-3.2,3.2v9.9c0,1.8,1.4,3.2,3.2,3.2h5.6c0.4,0,0.8-0.4,0.8-0.8
			c0-0.4-0.4-0.8-0.8-0.8H3.9c-0.9,0-1.6-0.7-1.6-1.6V4.6l7,5.6c0.5,0.3,1.1,0.5,1.7,0.5c0.6,0,1.2-0.2,1.7-0.5l7-5.6v5.5
			c0,0.4,0.4,0.8,0.8,0.8c0.4,0,0.8-0.4,0.8-0.8V4.5C21.3,2.7,19.9,1.2,18.1,1.2z M11.8,8.8c-0.5,0.3-1.2,0.3-1.7,0L3,3.2
			C3.2,3,3.5,2.8,3.9,2.8h14.2c0.3,0,0.7,0.1,0.9,0.3L11.8,8.8z"/>
		<path class="st10" d="M20.8,16.8c-0.1,0-0.6-0.3-0.6-0.9v-1.2c0-1.7-1.2-3.1-2.8-3.5v-0.5c0-0.4-0.4-0.8-0.8-0.8
			c-0.5,0-0.8,0.4-0.8,0.8v0.5c-1.6,0.4-2.8,1.8-2.8,3.5v1.2c0,0.6-0.5,0.9-0.6,0.9c-0.3,0.1-0.5,0.4-0.5,0.8c0,0.5,0.2,1.1,0.5,1.5
			c0.4,0.6,1.1,0.9,1.8,0.9h1.7c0,0.4,0.4,0.8,0.8,0.8c0.4,0,0.8-0.4,0.8-0.8h1.7c0.7,0,1.4-0.3,1.8-0.9c0.3-0.4,0.5-1,0.5-1.5
			C21.3,17.2,21.1,16.9,20.8,16.8z M19.1,18.3h-5c-0.3,0-0.5-0.2-0.5-0.4c0.5-0.4,1.1-1.1,1.1-2.1v-1.2c0-1.1,0.9-2,2-2c0,0,0,0,0,0
			h0c1.1,0,2,0.9,2,2v1.2c0,1,0.5,1.7,1.1,2.1C19.5,18.1,19.4,18.3,19.1,18.3z"/>
	</g>
</g>
</svg>
