<?xml version="1.0" encoding="utf-8"?>
<!-- Generator: Adobe Illustrator 23.0.0, SVG Export Plug-In . SVG Version: 6.00 Build 0)  -->
<svg version="1.1" xmlns="http://www.w3.org/2000/svg" xmlns:xlink="http://www.w3.org/1999/xlink" x="0px" y="0px"
	 viewBox="0 0 22 22" style="enable-background:new 0 0 22 22;" xml:space="preserve">
<style type="text/css">
	.st0{fill:#040000;}
	.st1{fill:none;stroke:#231815;stroke-width:9;stroke-linecap:round;stroke-miterlimit:10;}
	.st2{fill:#231815;}
	.st3{fill:none;stroke:#231815;stroke-width:10;stroke-linecap:round;stroke-miterlimit:10;}
	.st4{fill:#1B1C1A;stroke:#231815;stroke-width:5;stroke-miterlimit:10;}
	.st5{fill:none;stroke:#040000;stroke-width:11;stroke-miterlimit:10;}
	.st6{fill:none;stroke:#040000;stroke-width:11;stroke-linecap:round;stroke-miterlimit:10;}
	.st7{fill:none;stroke:#040000;stroke-width:9;stroke-linecap:round;stroke-miterlimit:10;}
	.st8{fill:none;stroke:#040000;stroke-width:8;stroke-miterlimit:10;}
	.st9{fill:#F5946C;}
	.st10{opacity:0.5;fill:#F5946C;}
	.st11{display:none;}
	.st12{display:inline;}
	.st13{fill:#FFFFFF;}
	.st14{fill:#FFA4A4;}
	.st15{display:inline;opacity:0.2;fill:url(#SVGID_1_);}
	.st16{display:inline;fill:url(#SVGID_2_);}
	.st17{display:inline;fill:url(#SVGID_3_);}
	.st18{fill:#F8F8F8;}
	.st19{fill:none;stroke:#BCBCBC;stroke-width:3;stroke-linecap:round;stroke-miterlimit:10;}
	.st20{fill:#E5E5E5;}
	.st21{fill:#D3D3D3;}
	.st22{fill:#FFFFFC;}
	.st23{fill:#C1ECBE;}
	.st24{fill:#BCBCBC;}
	.st25{display:inline;fill:#E5E5E5;}
	.st26{display:inline;fill:#BCBCBC;}
	.st27{fill:#D3DCEA;}
	.st28{fill:#E6EAF5;}
	.st29{fill:none;stroke:#AABAC7;stroke-width:3;stroke-linecap:round;stroke-miterlimit:10;}
	.st30{fill:#E6EAF5;stroke:#AABAC7;stroke-width:3;stroke-linecap:round;stroke-miterlimit:10;}
	.st31{fill:none;stroke:#AABAC7;stroke-width:2;stroke-linecap:round;stroke-miterlimit:10;}
	.st32{fill:#A6DDC4;}
	.st33{fill:#BCBCBC;stroke:#BCBCBC;stroke-width:0.5;stroke-linecap:round;stroke-miterlimit:10;}
	.st34{fill:none;stroke:#BCBCBC;stroke-width:4;stroke-linecap:round;stroke-miterlimit:10;}
	.st35{fill:#F4F7F9;}
	.st36{fill:#F3F4F5;}
	.st37{fill:none;stroke:#AABAC7;stroke-width:3;stroke-miterlimit:10;}
	.st38{fill:#AABAC7;}
	.st39{fill:#AABAC7;stroke:#AABAC7;stroke-width:0.5;stroke-linecap:round;stroke-miterlimit:10;}
	.st40{fill:#AABAC7;stroke:#AABAC7;stroke-width:4;stroke-linecap:round;stroke-miterlimit:10;}
	.st41{fill:#FFF5F7;}
	.st42{fill:none;stroke:#6D7F89;stroke-width:3;stroke-linecap:round;stroke-miterlimit:10;}
	.st43{fill:#FEF4F0;}
	.st44{fill:none;stroke:#6D7F89;stroke-width:3;stroke-miterlimit:10;}
	.st45{fill:#FCECE3;}
	.st46{display:inline;fill:#FFB5C7;}
	.st47{display:inline;fill:#FF6C8F;}
	.st48{display:inline;fill:#FFFFFC;}
	.st49{display:inline;fill:none;stroke:#6D7F89;stroke-width:3;stroke-linecap:round;stroke-miterlimit:10;}
	.st50{display:inline;fill:#F980C8;}
	.st51{fill:#F8F5FE;}
	.st52{display:inline;fill:#D9C5F7;}
	.st53{display:inline;fill:#BD9BF2;}
	.st54{display:inline;fill:#E590F5;}
	.st55{fill:#F4917A;}
	.st56{fill:#FFC197;}
	.st57{fill:#6D7F89;}
	.st58{fill:#FBC378;}
	.st59{display:inline;fill:#F4917A;}
	.st60{display:inline;fill:none;stroke:#6D7F89;stroke-width:3;stroke-miterlimit:10;}
	.st61{display:inline;fill:#FFC197;}
	.st62{fill:#6D7F89;stroke:#6D7F89;stroke-width:0.5;stroke-linecap:round;stroke-miterlimit:10;}
	.st63{fill:none;stroke:#6D7F89;stroke-width:4;stroke-linecap:round;stroke-miterlimit:10;}
	.st64{display:inline;fill:#FBC378;}
	.st65{display:inline;fill:#FCECE3;}
	.st66{display:inline;fill:#FCCF93;}
	.st67{display:inline;fill:#FBD5C6;}
	.st68{display:inline;fill:#FEF4F0;}
	.st69{display:inline;fill:#F7A989;}
	.st70{display:inline;fill:#52C94B;}
	.st71{display:inline;fill:#9BE296;}
	.st72{display:inline;fill:#47A537;}
	.st73{display:inline;fill:#D7EFD5;}
	.st74{fill:#EDF9ED;}
	.st75{display:inline;fill:#C1ECBE;}
	.st76{display:inline;fill:#F8F8F8;}
	.st77{display:inline;fill:#D3D3D3;}
	.st78{display:inline;fill:#EAECEF;}
	.st79{display:inline;fill:#CECECE;}
	.st80{display:inline;fill:#60D7FF;}
	.st81{display:inline;fill:#BDE0F9;}
	.st82{display:inline;fill:#E7F1FA;}
	.st83{display:inline;fill:#79B9F2;}
	.st84{display:inline;fill:#6D7F89;}
	.st85{display:inline;fill:#F8F5FE;}
	.st86{display:inline;fill:#ED6EFF;}
	.st87{display:inline;fill:#FFF5F7;}
	.st88{display:inline;fill:none;stroke:#BCBCBC;stroke-width:3;stroke-linecap:round;stroke-miterlimit:10;}
	.st89{display:inline;opacity:0.85;}
	.st90{display:inline;opacity:0.7;}
	.st91{display:inline;opacity:0.2;fill:#FFFFFF;}
	.st92{fill:url(#SVGID_4_);}
	.st93{display:inline;opacity:0.6;}
	.st94{fill:url(#SVGID_5_);}
	.st95{display:inline;opacity:0.2;fill:url(#SVGID_6_);}
	.st96{fill:url(#SVGID_7_);}
	.st97{fill:url(#SVGID_8_);}
	.st98{display:inline;opacity:0.2;fill:url(#SVGID_9_);}
	.st99{display:inline;fill:url(#SVGID_10_);}
	.st100{display:inline;fill:#9EEB9A;}
	.st101{fill:url(#SVGID_11_);}
	.st102{fill:url(#SVGID_12_);}
	.st103{display:inline;opacity:0.2;fill:url(#SVGID_13_);}
	.st104{fill:url(#SVGID_14_);}
	.st105{fill:url(#SVGID_15_);}
	.st106{fill:url(#SVGID_16_);}
	.st107{display:inline;opacity:0.6;fill:url(#SVGID_17_);}
	.st108{display:inline;opacity:0.85;fill:url(#SVGID_18_);}
	.st109{display:inline;opacity:0.6;fill:url(#SVGID_19_);}
	.st110{display:inline;opacity:0.6;fill:url(#SVGID_20_);}
	.st111{display:inline;opacity:0.6;fill:url(#SVGID_21_);}
	.st112{display:inline;opacity:0.2;fill:url(#SVGID_22_);}
	.st113{fill:url(#SVGID_23_);}
	.st114{display:inline;opacity:0.6;fill:url(#SVGID_24_);}
	.st115{display:inline;opacity:0.85;fill:url(#SVGID_25_);}
	.st116{display:inline;opacity:0.6;fill:url(#SVGID_26_);}
	.st117{display:inline;opacity:0.6;fill:url(#SVGID_27_);}
	.st118{display:inline;opacity:0.6;fill:url(#SVGID_28_);}
	.st119{fill:none;stroke:#000000;stroke-width:1.75;stroke-miterlimit:10;}
	.st120{fill:none;stroke:#000000;stroke-width:1.75;stroke-linecap:round;stroke-miterlimit:10;}
	.st121{display:inline;fill:#FFFFFF;}
	.st122{opacity:0.5;}
	.st123{opacity:0.65;fill:#DB7777;}
</style>
<g id="圖層_1">
</g>
<g id="圖層_2" class="st11">
	<g class="st12">
		<path class="st13" d="M4,15.1c-0.9,0-1.6-0.7-1.6-1.6v0c0-0.9,0.7-1.6,1.6-1.6h0L4,15.1C4,15.1,4,15.1,4,15.1z M15,19.8H7.2
			c-0.9,0-1.6-0.7-1.6-1.6v-6.3h1.5c0.2,1.8,1.9,3.3,3.9,3.3s3.7-1.4,3.9-3.3h1.6v6.3C16.6,19,15.9,19.8,15,19.8z M13.4,11.8
			c-0.2,0.9-1.2,1.7-2.3,1.7S9,12.8,8.8,11.8H13.4z M19.8,13.4L19.8,13.4c0,0.9-0.7,1.7-1.6,1.7v-3.3C19.1,11.8,19.8,12.6,19.8,13.4
			z M10.2,10.2H4c-0.6,0-1.1,0.2-1.6,0.4V3.9C2.4,3,3.1,2.3,4,2.3h6.2h1.6h6.4c0.9,0,1.6,0.7,1.6,1.6v2.3c0,0.4,0.4,0.8,0.8,0.8
			s0.8-0.4,0.8-0.8V3.9c0-1.8-1.5-3.2-3.2-3.2H4c-1.8,0-3.2,1.5-3.2,3.2v9.6c0,0,0,0,0,0c0,1.7,1.5,3.2,3.2,3.2c0,0,0,0,0,0v1.4
			c0,1.8,1.5,3.2,3.2,3.2H15c1.8,0,3.2-1.5,3.2-3.2v-1.4c1.8,0,3.2-1.5,3.2-3.2v-3.3c0-0.4-0.4-0.8-0.8-0.8s-0.8,0.4-0.8,0.8v0.4
			c-0.5-0.3-1-0.4-1.6-0.4h-6.4H10.2z M11.9,17.5c0,0.4-0.4,0.8-0.8,0.8c-0.4,0-0.8-0.4-0.8-0.8s0.4-0.8,0.8-0.8
			C11.6,16.7,11.9,17.1,11.9,17.5z"/>
		<path class="st13" d="M11.5,5.5h-0.8c-0.4,0-0.7-0.3-0.7-0.6V4.8c0-0.3,0.3-0.5,0.7-0.5h0.8c0.2,0,0.5,0.1,0.5,0.3
			c0,0.4,0.4,0.7,0.9,0.7s0.9-0.3,0.9-0.7c0-0.8-0.8-1.5-1.9-1.6V2.5c0-0.4-0.4-0.7-0.9-0.7c-0.5,0-0.9,0.3-0.9,0.7V3
			C9.6,3,9.2,3.2,8.9,3.5C8.4,3.8,8.1,4.3,8.1,4.8v0.1c0,1.1,1.1,1.9,2.6,1.9h0.8c0.4,0,0.7,0.2,0.7,0.6v0.3c0,0.3-0.3,0.5-0.7,0.5
			h-1.4c-0.3,0-0.4-0.1-0.4-0.3c0-0.4-0.4-0.7-0.9-0.7c-0.5,0-0.9,0.3-0.9,0.7c0,0.5,0.2,0.9,0.7,1.2C9,9.4,9.5,9.5,10.1,9.5v0.4
			c0,0.4,0.4,0.7,0.9,0.7s0.9-0.3,0.9-0.7V9.5c1.2-0.1,2.2-0.9,2.2-1.8V7.4C14.1,6.3,12.9,5.5,11.5,5.5z"/>
	</g>
</g>
<g id="圖層_3">
	<g>
		<path class="st9" d="M13.4,11.8c-0.2,0.9-1.2,1.7-2.3,1.7S9,12.8,8.8,11.8H7.2c0.2,1.8,1.9,3.3,3.9,3.3s3.7-1.4,3.9-3.3H13.4z
			 M11.9,17.5c0,0.4-0.4,0.8-0.8,0.8c-0.4,0-0.8-0.4-0.8-0.8s0.4-0.8,0.8-0.8C11.6,16.7,11.9,17.1,11.9,17.5z"/>
	</g>
	<path class="st9" d="M11.5,5.5h-0.8c-0.4,0-0.7-0.3-0.7-0.6V4.8c0-0.3,0.3-0.5,0.7-0.5h0.8c0.2,0,0.5,0.1,0.5,0.3
		c0,0.4,0.4,0.7,0.9,0.7s0.9-0.3,0.9-0.7c0-0.8-0.8-1.5-1.9-1.6V2.5c0-0.4-0.4-0.7-0.9-0.7c-0.5,0-0.9,0.3-0.9,0.7V3
		C9.6,3,9.2,3.2,8.9,3.5C8.4,3.8,8.1,4.3,8.1,4.8v0.1c0,1.1,1.1,1.9,2.6,1.9h0.8c0.4,0,0.7,0.2,0.7,0.6v0.3c0,0.3-0.3,0.5-0.7,0.5
		h-1.4c-0.3,0-0.4-0.1-0.4-0.3c0-0.4-0.4-0.7-0.9-0.7c-0.5,0-0.9,0.3-0.9,0.7c0,0.5,0.2,0.9,0.7,1.2C9,9.4,9.5,9.5,10.1,9.5v0.4
		c0,0.4,0.4,0.7,0.9,0.7s0.9-0.3,0.9-0.7V9.5c1.2-0.1,2.2-0.9,2.2-1.8V7.4C14.1,6.3,12.9,5.5,11.5,5.5z"/>
	<path class="st10" d="M4,15.1C4,15.1,4,15.1,4,15.1c-0.9,0-1.7-0.7-1.7-1.6v0c0-0.9,0.7-1.6,1.6-1.6h0h1.6h1.5h1.6h4.6H15h1.6h1.6
		c0.9,0,1.6,0.7,1.6,1.6v0c0,0.9-0.7,1.6-1.6,1.6v1.6c1.8,0,3.2-1.5,3.2-3.2v-3.3c0-0.4-0.4-0.8-0.8-0.8s-0.8,0.4-0.8,0.8v0.4
		c-0.5-0.3-1-0.4-1.6-0.4h-6.4h-1.6H4c-0.6,0-1.1,0.2-1.6,0.4V3.9C2.4,3,3.1,2.3,4,2.3h6.2h1.6h6.4c0.9,0,1.6,0.7,1.6,1.6v2.3
		c0,0.4,0.4,0.8,0.8,0.8s0.8-0.4,0.8-0.8V3.9c0-1.8-1.5-3.2-3.2-3.2H4c-1.8,0-3.2,1.5-3.2,3.2v9.6c0,0,0,0,0,0
		c0,1.7,1.5,3.2,3.2,3.2c0,0,0,0,0,0V15.1z"/>
	<g>
		<path class="st9" d="M4,16.7v1.4c0,1.8,1.5,3.2,3.2,3.2H15c1.8,0,3.2-1.5,3.2-3.2v-1.4v-1.6v-3.3h-1.6v6.3c0,0.9-0.7,1.6-1.6,1.6
			H7.2c-0.9,0-1.6-0.7-1.6-1.6v-6.3H4v3.3V16.7z"/>
	</g>
</g>
</svg>
