<?xml version="1.0" encoding="utf-8"?>
<!-- Generator: Adobe Illustrator 23.0.0, SVG Export Plug-In . SVG Version: 6.00 Build 0)  -->
<svg version="1.1" xmlns="http://www.w3.org/2000/svg" xmlns:xlink="http://www.w3.org/1999/xlink" x="0px" y="0px"
	 viewBox="0 0 56 56" style="enable-background:new 0 0 56 56;" xml:space="preserve">
<style type="text/css">
	.st0{fill:#29C9C6;}
	.st1{fill:#25DAAD;}
	.st2{display:none;}
	.st3{display:inline;opacity:0.1;fill:#E99320;}
	.st4{fill:none;stroke:#E99320;stroke-width:3.8;stroke-linecap:round;stroke-miterlimit:10;}
	.st5{fill:url(#SVGID_1_);}
	.st6{fill:url(#SVGID_2_);}
	.st7{fill:url(#SVGID_3_);}
	.st8{fill:url(#SVGID_4_);}
	.st9{fill:url(#SVGID_5_);}
	.st10{fill:url(#SVGID_6_);}
	.st11{fill:url(#SVGID_7_);}
	.st12{fill:url(#SVGID_8_);}
	.st13{fill:url(#SVGID_9_);}
	.st14{fill:url(#SVGID_10_);}
	.st15{fill:url(#SVGID_11_);}
	.st16{fill:url(#SVGID_12_);}
	.st17{fill:url(#SVGID_13_);}
	.st18{fill:url(#SVGID_14_);}
	.st19{fill:url(#SVGID_15_);}
	.st20{fill:url(#SVGID_16_);}
	.st21{fill:url(#SVGID_17_);}
	.st22{fill:#CFF9EB;}
	.st23{fill:#EADAC3;}
	.st24{fill:none;stroke:#EADAC3;stroke-width:4;stroke-linecap:round;stroke-miterlimit:10;}
	.st25{fill:none;stroke:#7B7D7E;stroke-width:4;stroke-linecap:round;stroke-miterlimit:10;}
	.st26{fill:#ADF2DB;}
	.st27{fill:url(#SVGID_18_);}
	.st28{fill:url(#SVGID_19_);}
	.st29{fill:url(#SVGID_20_);}
	.st30{fill:none;stroke:#EAA4A4;stroke-width:4;stroke-linecap:round;stroke-miterlimit:10;}
	.st31{fill:url(#SVGID_21_);}
	.st32{fill:url(#SVGID_22_);}
	.st33{fill:url(#SVGID_23_);}
	.st34{fill:url(#SVGID_24_);}
	.st35{fill:url(#SVGID_25_);}
	.st36{fill:url(#SVGID_26_);}
	.st37{fill:url(#SVGID_27_);}
	.st38{fill:url(#SVGID_28_);}
	.st39{fill:url(#SVGID_29_);}
	.st40{fill:url(#SVGID_30_);}
	.st41{fill:url(#SVGID_31_);}
	.st42{fill:url(#SVGID_32_);}
	.st43{fill:url(#SVGID_33_);}
	.st44{fill:url(#SVGID_34_);}
	.st45{fill:url(#SVGID_35_);}
	.st46{fill:url(#SVGID_36_);}
	.st47{fill:url(#SVGID_37_);}
	.st48{fill:url(#SVGID_38_);}
	.st49{fill:url(#SVGID_39_);}
	.st50{fill:url(#SVGID_40_);}
	.st51{fill:url(#SVGID_41_);}
	.st52{fill:#7B7D7E;}
	.st53{fill:none;stroke:#7B7D7E;stroke-width:3.8;stroke-linecap:round;stroke-miterlimit:10;}
	.st54{fill:url(#SVGID_42_);}
	.st55{fill:url(#SVGID_43_);}
	.st56{fill:url(#SVGID_44_);}
	.st57{fill:url(#SVGID_45_);}
	.st58{fill:url(#SVGID_46_);}
	.st59{fill:url(#SVGID_47_);}
	.st60{fill:url(#SVGID_48_);}
	.st61{fill:url(#SVGID_49_);}
	.st62{fill:url(#SVGID_50_);}
	.st63{fill:url(#SVGID_51_);}
	.st64{fill:url(#SVGID_52_);}
	.st65{fill:#E8D0B1;}
	.st66{fill:url(#SVGID_53_);}
	.st67{fill:url(#SVGID_54_);}
	.st68{fill:url(#SVGID_55_);}
	.st69{fill:url(#SVGID_56_);}
	.st70{fill:url(#SVGID_57_);}
	.st71{fill:url(#SVGID_58_);}
	.st72{fill:url(#SVGID_59_);}
	.st73{fill:url(#SVGID_60_);}
	.st74{fill:url(#SVGID_61_);}
	.st75{fill:url(#SVGID_62_);}
	.st76{fill:url(#SVGID_63_);}
	.st77{fill:url(#SVGID_64_);}
	.st78{fill:#F4CE78;}
	.st79{fill:url(#SVGID_65_);}
	.st80{fill:url(#SVGID_66_);}
	.st81{fill:url(#SVGID_67_);}
	.st82{fill:url(#SVGID_68_);}
	.st83{fill:url(#SVGID_69_);}
	.st84{fill:url(#SVGID_70_);}
	.st85{fill:url(#SVGID_71_);}
	.st86{fill:url(#SVGID_72_);}
	.st87{fill:url(#SVGID_73_);}
	.st88{fill:url(#SVGID_74_);}
	.st89{fill:url(#SVGID_75_);}
	.st90{fill:url(#SVGID_76_);}
	.st91{fill:url(#SVGID_77_);}
	.st92{fill:url(#SVGID_78_);}
	.st93{fill:url(#SVGID_79_);}
	.st94{fill:url(#SVGID_80_);}
	.st95{fill:url(#SVGID_81_);}
	.st96{fill:url(#SVGID_82_);}
	.st97{fill:url(#SVGID_83_);}
	.st98{fill:url(#SVGID_84_);}
	.st99{fill:url(#SVGID_85_);}
	.st100{fill:url(#SVGID_86_);}
	.st101{fill:url(#SVGID_87_);}
	.st102{fill:url(#SVGID_88_);}
	.st103{fill:url(#SVGID_89_);}
	.st104{fill:url(#SVGID_90_);}
	.st105{fill:url(#SVGID_91_);}
	.st106{fill:url(#SVGID_92_);}
	.st107{fill:url(#SVGID_93_);}
	.st108{fill:url(#SVGID_94_);}
	.st109{fill:url(#SVGID_95_);}
	.st110{fill:url(#SVGID_96_);}
	.st111{fill:none;stroke:#EADAC3;stroke-width:3.5;stroke-linecap:round;stroke-miterlimit:10;}
	.st112{fill:none;stroke:#7B7D7E;stroke-width:3.6;stroke-linecap:round;stroke-miterlimit:10;}
	.st113{fill:url(#SVGID_97_);}
	.st114{fill:none;stroke:#EADAC3;stroke-width:3.8;stroke-linecap:round;stroke-miterlimit:10;}
	.st115{fill:url(#SVGID_98_);}
	.st116{fill:url(#SVGID_99_);}
	.st117{fill:url(#SVGID_100_);}
	.st118{fill:url(#SVGID_101_);}
	.st119{fill:url(#SVGID_102_);}
	.st120{fill:url(#SVGID_103_);}
	.st121{fill:url(#SVGID_104_);}
	.st122{fill:url(#SVGID_105_);}
	.st123{fill:url(#SVGID_106_);}
	.st124{fill:url(#SVGID_107_);}
	.st125{fill:url(#SVGID_108_);}
	.st126{fill:url(#SVGID_109_);}
	.st127{fill:url(#SVGID_110_);}
	.st128{fill:url(#SVGID_111_);}
	.st129{fill:#8CEB8D;}
	.st130{fill:#53D4CF;}
	.st131{fill:#C7F9C7;}
	.st132{fill:#FB8DB2;}
	.st133{fill:#FF6C8F;}
	.st134{fill:#FBC378;}
	.st135{fill:#F48969;}
	.st136{fill:#FF6D31;}
	.st137{fill:#FF3B57;}
	.st138{fill:none;stroke:#231815;stroke-width:5;stroke-miterlimit:10;}
	.st139{fill:none;stroke:#231815;stroke-width:7;stroke-linecap:round;stroke-miterlimit:10;}
	.st140{fill:#231815;}
	.st141{fill:none;stroke:#000000;stroke-width:8;stroke-miterlimit:10;}
</style>
<g id="圖層_2">
</g>
<g id="圖層_3">
</g>
<g id="圖層_4">
</g>
<g id="圖層_6" class="st2">
	<rect x="-14.7" y="5" class="st3" width="172.2" height="46"/>
</g>
<g id="圖層_7">
	<g>
		<g>
			<linearGradient id="SVGID_1_" gradientUnits="userSpaceOnUse" x1="28.3709" y1="55.6835" x2="27.6852" y2="4.7121">
				<stop  offset="0" style="stop-color:#7B7D7E"/>
				<stop  offset="0.314" style="stop-color:#7E8081"/>
				<stop  offset="0.5662" style="stop-color:#888A8B"/>
				<stop  offset="0.7961" style="stop-color:#999A9B"/>
				<stop  offset="1" style="stop-color:#AFB0B0"/>
			</linearGradient>
			<path class="st5" d="M22,48.2C22,48.2,21.9,48.2,22,48.2C11.8,48,8.4,40.1,8.2,35.8c-2.1-1-3.3-2.9-3.3-5.1v-5.1
				c0-3.5,2.6-4.9,3.8-5.5C12.6,7.6,21.4,5,28,5c9.4,0,16.2,5.3,19.3,15c1.1,0.6,3.8,2,3.8,5.5l0,5.1c0,3.7-3.2,5.3-4.9,5.7
				c-1,0.2-2-0.4-2.3-1.5c-0.2-1,0.4-2,1.5-2.2c0.2,0,1.9-0.5,1.9-2l0-5.1c0-1.2-0.7-1.6-1.8-2.2c-0.6-0.3-1.2-0.6-1.5-1.3
				c-0.1-0.2-0.2-0.4-0.3-0.8C41.2,13,35.9,8.8,28,8.8c-7.9,0-13.2,4.2-15.9,12.5c-0.1,0.4-0.2,0.6-0.3,0.8c-0.3,0.7-0.9,1-1.5,1.2
				c-1.1,0.5-1.7,0.9-1.7,2.1v5.1c0,0.3,0,1.2,1.5,1.8c1.1,0.5,1.9,1.6,1.9,2.8c0,1.9,1.6,9,10,9.2c1,0,1.9,0.9,1.9,1.9
				C23.8,47.4,23,48.2,22,48.2z"/>
		</g>
		<g>
			<linearGradient id="SVGID_2_" gradientUnits="userSpaceOnUse" x1="27.8887" y1="55.69" x2="27.203" y2="4.7186">
				<stop  offset="0" style="stop-color:#7B7D7E"/>
				<stop  offset="0.314" style="stop-color:#7E8081"/>
				<stop  offset="0.5662" style="stop-color:#888A8B"/>
				<stop  offset="0.7961" style="stop-color:#999A9B"/>
				<stop  offset="1" style="stop-color:#AFB0B0"/>
			</linearGradient>
			<path class="st6" d="M29.5,51H26c-2.5,0-4.5-2-4.5-4.5v-0.1c0-2.5,2-4.5,4.5-4.5h3.5c2.5,0,4.5,2,4.5,4.5v0.1
				C34,49,32,51,29.5,51z M26,45.6c-0.4,0-0.7,0.3-0.7,0.7v0.1c0,0.4,0.3,0.7,0.7,0.7h3.5c0.4,0,0.7-0.3,0.7-0.7v-0.1
				c0-0.4-0.3-0.7-0.7-0.7H26z"/>
		</g>
	</g>
</g>
<g id="圖層_5">
</g>
</svg>
