<?xml version="1.0" encoding="utf-8"?>
<!-- Generator: Adobe Illustrator 23.0.6, SVG Export Plug-In . SVG Version: 6.00 Build 0)  -->
<svg version="1.1" id="圖層_1" xmlns="http://www.w3.org/2000/svg" xmlns:xlink="http://www.w3.org/1999/xlink" x="0px" y="0px"
	 viewBox="0 0 68 68" style="enable-background:new 0 0 68 68;" xml:space="preserve">
<style type="text/css">
	.st0{fill:#F8AD0A;}
	.st1{fill:#848484;}
</style>
<g>
	<path class="st0" d="M39.1,45.9c-1.1,0.4-2,0.8-2.7,1c-0.7,0.2-1.4,0.3-2.3,0.3c-1.3,0-2.4-0.3-3.1-1c-0.7-0.7-1.1-1.5-1.1-2.5
		c0-0.4,0-0.8,0.1-1.2c0.1-0.4,0.1-0.9,0.3-1.4l1.4-4.9c0.1-0.5,0.2-0.9,0.3-1.3c0.1-0.4,0.1-0.8,0.1-1.2c0-0.6-0.1-1.1-0.4-1.3
		c-0.3-0.2-0.8-0.4-1.5-0.4c-0.4,0-0.7,0.1-1.1,0.2c-0.4,0.1-0.7,0.2-1,0.3l0.4-1.5c0.9-0.4,1.8-0.7,2.6-0.9
		c0.8-0.3,1.6-0.4,2.4-0.4c1.3,0,2.4,0.3,3.1,1c0.7,0.6,1.1,1.5,1.1,2.5c0,0.2,0,0.6-0.1,1.1c0,0.5-0.1,1-0.3,1.5l-1.4,4.9
		c-0.1,0.4-0.2,0.8-0.3,1.3c-0.1,0.5-0.1,0.9-0.1,1.1c0,0.6,0.1,1.1,0.4,1.3c0.3,0.2,0.8,0.4,1.5,0.4c0.3,0,0.7-0.1,1.1-0.2
		c0.4-0.1,0.7-0.2,0.9-0.3L39.1,45.9z"/>
	<path class="st0" d="M38.9,26c-0.6,0.6-1.4,0.9-2.3,0.9c-0.9,0-1.7-0.3-2.3-0.9c-0.6-0.6-1-1.3-1-2.2c0-0.8,0.3-1.6,1-2.2
		c0.6-0.6,1.4-0.9,2.3-0.9c0.9,0,1.7,0.3,2.3,0.9c0.6,0.6,1,1.3,1,2.2C39.8,24.7,39.5,25.4,38.9,26z"/>
</g>
<path class="st1" d="M34,14.6c10.4,0,19.1,8.8,19.1,19.1c0,3.7-1.1,7.7-2.9,10.5c-0.8,1.3-1,2.8-0.5,4.2l0.5,1.5l-1.5-0.5
	c-0.5-0.2-1-0.3-1.6-0.3c-0.9,0-1.9,0.3-2.7,0.8c-2.8,1.8-6.8,2.9-10.5,2.9c-10.4,0-19.1-8.8-19.1-19.1S23.6,14.6,34,14.6 M34,10.6
	c-12.5,0-23.1,10.6-23.1,23.1S21.5,56.9,34,56.9c4.4,0,9.2-1.3,12.6-3.5c0.2-0.1,0.3-0.2,0.5-0.2c0.1,0,0.2,0,0.3,0.1l9.1,3l-3-9.1
	c-0.1-0.3-0.1-0.6,0.1-0.8c2.2-3.5,3.5-8.2,3.5-12.6C57.1,21.2,46.5,10.6,34,10.6L34,10.6z"/>
</svg>
