<?xml version="1.0" encoding="utf-8"?>
<!-- Generator: Adobe Illustrator 23.0.6, SVG Export Plug-In . SVG Version: 6.00 Build 0)  -->
<svg version="1.1" id="圖層_1" xmlns="http://www.w3.org/2000/svg" xmlns:xlink="http://www.w3.org/1999/xlink" x="0px" y="0px"
	 viewBox="0 0 68 68" style="enable-background:new 0 0 68 68;" xml:space="preserve">
<style type="text/css">
	.st0{fill:#F8AD0A;}
	.st1{fill:#848484;}
</style>
<g>
	<path class="st0" d="M41.3,44.8h-15c-1.1,0-2-0.9-2-2s0.9-2,2-2h15c1.1,0,2,0.9,2,2S42.4,44.8,41.3,44.8z"/>
	<path class="st0" d="M41.3,36.2H21c-1.1,0-2-0.9-2-2c0-1.1,0.9-2,2-2h20.3c1.1,0,2,0.9,2,2C43.3,35.3,42.4,36.2,41.3,36.2z"/>
	<path class="st0" d="M41.3,27.5H30.1c-1.1,0-2-0.9-2-2s0.9-2,2-2h11.3c1.1,0,2,0.9,2,2S42.4,27.5,41.3,27.5z"/>
</g>
<path class="st1" d="M50,56.1H22c-5.5,0-10-4.5-10-10v-35h28c5.5,0,10,4.5,10,10V56.1z M16,15.1v31c0,3.3,2.7,6,6,6h24v-31
	c0-3.3-2.7-6-6-6H16z"/>
<path class="st1" d="M54,56.1h-3.5c-1.1,0-2-0.9-2-2s0.9-2,2-2H54c0.8,0,1.5-0.7,1.5-1.5s-0.7-1.5-1.5-1.5h-1c-1.1,0-2-0.9-2-2
	s0.9-2,2-2h1c3,0,5.5,2.5,5.5,5.5S57.1,56.1,54,56.1z"/>
</svg>
