<?xml version="1.0" encoding="utf-8"?>
<!-- Generator: Adobe Illustrator 23.0.6, SVG Export Plug-In . SVG Version: 6.00 Build 0)  -->
<svg version="1.1" id="圖層_1" xmlns="http://www.w3.org/2000/svg" xmlns:xlink="http://www.w3.org/1999/xlink" x="0px" y="0px"
	 viewBox="0 0 68 68" style="enable-background:new 0 0 68 68;" xml:space="preserve">
<style type="text/css">
	.st0{fill:#848484;}
	.st1{fill:#B5B5B5;}
</style>
<g>
	<g>
		<path class="st0" d="M34,53.8c-10.9,0-19.8-8.9-19.8-19.8S23.1,14.2,34,14.2c10.9,0,19.8,8.9,19.8,19.8S44.9,53.8,34,53.8z
			 M34,18.2c-8.7,0-15.8,7.1-15.8,15.8c0,8.7,7.1,15.8,15.8,15.8S49.8,42.7,49.8,34C49.8,25.3,42.7,18.2,34,18.2z"/>
	</g>
	<g>
		<path class="st1" d="M34,43.7c-5.4,0-9.7-4.4-9.7-9.7s4.4-9.7,9.7-9.7c5.4,0,9.7,4.4,9.7,9.7S39.4,43.7,34,43.7z M34,28.3
			c-3.2,0-5.7,2.6-5.7,5.7c0,3.2,2.6,5.7,5.7,5.7s5.7-2.6,5.7-5.7C39.7,30.8,37.2,28.3,34,28.3z"/>
	</g>
</g>
<path class="st0" d="M34,16c-1.1,0-2-0.9-2-2v-3.1c0-1.1,0.9-2,2-2s2,0.9,2,2V14C36,15.1,35.1,16,34,16z"/>
<path class="st0" d="M34,58.9c-1.1,0-2-0.9-2-2v-3.1c0-1.1,0.9-2,2-2s2,0.9,2,2v3.1C36,58,35.1,58.9,34,58.9z"/>
<path class="st0" d="M57,35.9h-3.1c-1.1,0-2-0.9-2-2c0-1.1,0.9-2,2-2H57c1.1,0,2,0.9,2,2C59,35,58.1,35.9,57,35.9z"/>
<path class="st0" d="M14.2,35.9H11c-1.1,0-2-0.9-2-2c0-1.1,0.9-2,2-2h3.1c1.1,0,2,0.9,2,2C16.2,35,15.3,35.9,14.2,35.9z"/>
<path class="st0" d="M48.1,21.9c-0.5,0-1-0.2-1.4-0.6c-0.8-0.8-0.8-2,0-2.8l2.2-2.2c0.8-0.8,2-0.8,2.8,0c0.8,0.8,0.8,2,0,2.8
	l-2.2,2.2C49.1,21.7,48.6,21.9,48.1,21.9z"/>
<path class="st0" d="M17.8,52.2c-0.5,0-1-0.2-1.4-0.6c-0.8-0.8-0.8-2,0-2.8l2.2-2.2c0.8-0.8,2-0.8,2.8,0c0.8,0.8,0.8,2,0,2.8
	l-2.2,2.2C18.8,52,18.3,52.2,17.8,52.2z"/>
<path class="st0" d="M50.3,52.2c-0.5,0-1-0.2-1.4-0.6l-2.2-2.2c-0.8-0.8-0.8-2,0-2.8s2-0.8,2.8,0l2.2,2.2c0.8,0.8,0.8,2,0,2.8
	C51.3,52,50.8,52.2,50.3,52.2z"/>
<path class="st0" d="M20,21.9c-0.5,0-1-0.2-1.4-0.6L16.4,19c-0.8-0.8-0.8-2,0-2.8c0.8-0.8,2-0.8,2.8,0l2.2,2.2c0.8,0.8,0.8,2,0,2.8
	C21,21.7,20.5,21.9,20,21.9z"/>
</svg>
