<?xml version="1.0" encoding="utf-8"?>
<!-- Generator: Adobe Illustrator 23.0.6, SVG Export Plug-In . SVG Version: 6.00 Build 0)  -->
<svg version="1.1" id="圖層_1" xmlns="http://www.w3.org/2000/svg" xmlns:xlink="http://www.w3.org/1999/xlink" x="0px" y="0px"
	 viewBox="0 0 68 68" style="enable-background:new 0 0 68 68;" xml:space="preserve">
<style type="text/css">
	.st0{fill:#848484;}
	.st1{fill:#F8AD0A;}
</style>
<g>
	<path class="st0" d="M51,57H23c-1.1,0-2-0.9-2-2s0.9-2,2-2H51c1.1,0,2,0.9,2,2S52.1,57,51,57z"/>
	<path class="st0" d="M17,57H15c-1.1,0-2-0.9-2-2s0.9-2,2-2H17c1.1,0,2,0.9,2,2S18.1,57,17,57z"/>
</g>
<g>
	<path class="st1" d="M29.1,45c-0.3,0-0.7-0.1-1-0.3c-1-0.6-1.3-1.8-0.7-2.7l2.9-5c0.6-1,1.8-1.3,2.7-0.7c1,0.6,1.3,1.8,0.7,2.7
		l-2.9,5C30.4,44.6,29.8,45,29.1,45z"/>
	<path class="st1" d="M33.1,48.9c-0.3,0-0.7-0.1-1-0.3l-9.4-5.4c-1-0.6-1.3-1.8-0.7-2.7c0.6-1,1.8-1.3,2.7-0.7l9.4,5.4
		c1,0.6,1.3,1.8,0.7,2.7C34.5,48.5,33.8,48.9,33.1,48.9z"/>
	<path class="st1" d="M38.8,43.4c-1.2,0-2.5-0.3-3.6-1c-1.2-0.7-2.8-2.2-3.8-3.6c-1.7-0.1-3.8-0.8-5-1.5c-3.4-2-4.6-6.2-2.6-9.7
		c4-7,16.3-6.8,16.9-6.8l1.1,0l0.6,1c0.3,0.4,6.5,11.1,2.5,18c-1,1.7-2.5,2.8-4.3,3.3C40.1,43.3,39.4,43.4,38.8,43.4z M33.9,34.5
		l0.6,1.5c0.2,0.6,1.7,2.3,2.8,2.9c0.7,0.4,1.6,0.5,2.3,0.3c0.8-0.2,1.5-0.7,1.9-1.5c2.1-3.6-0.3-9.9-1.9-13
		C36.1,25,29.5,26,27.3,29.6c-0.9,1.5-0.4,3.4,1.1,4.2c1,0.6,3.3,1,3.9,0.9L33.9,34.5z"/>
</g>
<path class="st0" d="M34,15.3c10.2,0,18.5,8.3,18.5,18.5S44.2,52.3,34,52.3S15.5,44,15.5,33.8S23.8,15.3,34,15.3 M34,11.3
	c-12.4,0-22.5,10.1-22.5,22.5c0,12.4,10.1,22.5,22.5,22.5s22.5-10.1,22.5-22.5C56.5,21.4,46.4,11.3,34,11.3L34,11.3z"/>
</svg>
