<?xml version="1.0" encoding="utf-8"?>
<!-- Generator: Adobe Illustrator 23.0.6, SVG Export Plug-In . SVG Version: 6.00 Build 0)  -->
<svg version="1.1" id="圖層_1" xmlns="http://www.w3.org/2000/svg" xmlns:xlink="http://www.w3.org/1999/xlink" x="0px" y="0px"
	 viewBox="0 0 68 68" style="enable-background:new 0 0 68 68;" xml:space="preserve">
<style type="text/css">
	.st0{fill:#7DEA6A;}
	.st1{fill:#848484;}
</style>
<g>
	<path class="st0" d="M57.5,45.3c-0.1,0-0.1,0-0.2,0c-1.1-0.1-1.9-1.1-1.8-2.2c0-0.2,0-0.4,0-0.6c0-4.4-4.1-7.9-9.2-7.9
		c-1.1,0-2-0.9-2-2s0.9-2,2-2c7.3,0,13.2,5.3,13.2,11.9c0,0.3,0,0.6,0,0.9C59.4,44.5,58.6,45.3,57.5,45.3z"/>
	<path class="st0" d="M39.1,37.1c-0.6,0-1.2-0.3-1.6-0.8c-0.7-0.9-0.5-2.1,0.4-2.8c2.4-1.8,5.4-2.8,8.5-2.8c1.1,0,2,0.9,2,2
		c0,1.1-0.9,2-2,2c-2.2,0-4.4,0.7-6.1,2C39.9,36.9,39.5,37.1,39.1,37.1z"/>
	<path class="st0" d="M46.7,34.7c-4.8,0-8.7-3.9-8.7-8.7s3.9-8.7,8.7-8.7s8.7,3.9,8.7,8.7S51.5,34.7,46.7,34.7z M46.7,21.3
		c-2.6,0-4.7,2.1-4.7,4.7s2.1,4.7,4.7,4.7c2.6,0,4.7-2.1,4.7-4.7S49.3,21.3,46.7,21.3z"/>
</g>
<g>
	<path class="st1" d="M23.6,19.2c3.4,0,6.2,2.8,6.2,6.2s-2.8,6.2-6.2,6.2s-6.2-2.8-6.2-6.2S20.2,19.2,23.6,19.2 M23.6,15.2
		c-5.6,0-10.2,4.6-10.2,10.2S18,35.7,23.6,35.7s10.2-4.6,10.2-10.2S29.3,15.2,23.6,15.2L23.6,15.2z"/>
	<path class="st1" d="M23.6,35.6c6.1,0,11,4.3,11,9.7c0,0.2,0,0.5,0,0.7c-3.2,1.8-6.9,2.9-10.9,2.9S16,47.8,12.8,46
		c0-0.2,0-0.5,0-0.7C12.6,40,17.5,35.6,23.6,35.6 M23.6,31.6c-8.3,0-15,6.1-15,13.7c0,0.3,0,0.7,0,1l0.2,2.1l1.8,1
		c3.9,2.2,8.4,3.4,12.9,3.4s9-1.2,12.9-3.4l1.8-1l0.2-2.1c0-0.4,0-0.7,0-1C38.6,37.8,31.9,31.6,23.6,31.6L23.6,31.6z"/>
</g>
</svg>
