<?xml version="1.0" encoding="utf-8"?>
<!-- Generator: Adobe Illustrator 23.0.6, SVG Export Plug-In . SVG Version: 6.00 Build 0)  -->
<svg version="1.1" id="圖層_1" xmlns="http://www.w3.org/2000/svg" xmlns:xlink="http://www.w3.org/1999/xlink" x="0px" y="0px"
	 viewBox="0 0 68 68" style="enable-background:new 0 0 68 68;" xml:space="preserve">
<style type="text/css">
	.st0{fill:#F8AD0A;}
	.st1{fill:#848484;}
</style>
<path class="st0" d="M31.2,43.2l-8.6-8.6c-0.8-0.8-0.8-2,0-2.8c0.8-0.8,2-0.8,2.8,0l5.8,5.8l12.4-12.4c0.8-0.8,2-0.8,2.8,0
	c0.8,0.8,0.8,2,0,2.8L31.2,43.2z"/>
<path class="st1" d="M34,13.1c0,0,3.6,2.5,7.3,4c3.6,1.5,11.7,2,11.7,2c0,0,0,4.9,0,11.9c0,7.1-1.5,13.6-7,19.1s-12,7-12,7
	s-6.5-1.5-12-7s-7-12-7-19.1c0-7.1,0-11.9,0-11.9c0,0,8.1-0.5,11.7-2C30.4,15.6,34,13.1,34,13.1 M34,8.3l-2.2,1.5l0,0
	c0,0-3.4,2.3-6.6,3.6c-2.2,0.9-7.5,1.5-10.4,1.7L11,15.3l0,3.8v11.9c0,5.9,0.8,14.6,8.2,21.9c6.2,6.2,13.6,8,13.9,8.1l0.9,0.2
	l0.9-0.2c0.3-0.1,7.7-1.8,13.9-8.1c7.3-7.3,8.2-16,8.2-21.9V19.1v-3.8l-3.8-0.2c-2.9-0.2-8.3-0.8-10.4-1.7c-3.2-1.4-6.5-3.6-6.6-3.6
	L34,8.3L34,8.3z"/>
</svg>
