<?xml version="1.0" encoding="utf-8"?>
<!-- Generator: Adobe Illustrator 23.0.6, SVG Export Plug-In . SVG Version: 6.00 Build 0)  -->
<svg version="1.1" id="圖層_1" xmlns="http://www.w3.org/2000/svg" xmlns:xlink="http://www.w3.org/1999/xlink" x="0px" y="0px"
	 viewBox="0 0 68 68" style="enable-background:new 0 0 68 68;" xml:space="preserve">
<style type="text/css">
	.st0{fill:#848484;}
	.st1{fill:#7DEA6A;}
</style>
<path class="st0" d="M32.8,58.6c-0.9,0-1.8-0.1-2.6-0.3c-2.6-0.7-4.8-2.4-6.1-4.7s-1.7-5-1-7.6l0.5-1.9L43,49.3l-0.5,1.9
	c-0.7,2.6-2.4,4.8-4.7,6.1C36.2,58.2,34.5,58.6,32.8,58.6z M26.7,49c0.1,0.9,0.3,1.8,0.8,2.6c0.8,1.4,2.1,2.4,3.7,2.8
	c1.6,0.4,3.2,0.2,4.6-0.6c0.8-0.5,1.5-1.1,2-1.8L26.7,49z"/>
<path class="st0" d="M42,15.8c-0.2,0-0.3,0-0.5-0.1c-1.1-0.3-1.7-1.4-1.4-2.4l1-3.9c0.3-1.1,1.4-1.7,2.4-1.4
	c1.1,0.3,1.7,1.4,1.4,2.4l-1,3.9C43.7,15.2,42.9,15.8,42,15.8z"/>
<path class="st0" d="M51.3,55.2c-0.5,0-1-0.1-1.5-0.2L15,45.7c-3.2-0.9-5.3-4.3-4.4-7.4s4.3-5.1,7.5-4.2l4.8,1.3
	c1.1,0.3,1.7,1.4,1.4,2.4c-0.3,1.1-1.4,1.7-2.4,1.4L17.1,38c-1.1-0.3-2.3,0.3-2.6,1.4c-0.3,1,0.5,2.2,1.6,2.5l34.8,9.3
	c0.6,0.2,1.1,0,1.4-0.2c0.4-0.3,0.8-0.7,0.9-1.3s0.1-1.1-0.1-1.6c-0.2-0.3-0.5-0.7-1.1-0.9L47.1,46c-1.1-0.3-1.7-1.4-1.4-2.4
	c0.3-1.1,1.4-1.7,2.4-1.4l4.8,1.3c3.2,0.8,4.9,4.1,4.1,7.3c-0.4,1.5-1.4,2.8-2.7,3.6C53.4,54.9,52.4,55.2,51.3,55.2z"/>
<path class="st0" d="M50.4,46.6c-0.2,0-0.3,0-0.5-0.1c-1.1-0.3-1.7-1.4-1.4-2.4l3.2-12c1.8-6.7-3-13.9-10.7-15.9
	c-7.7-2.1-15.5,1.7-17.3,8.4l-3.2,12c-0.3,1.1-1.4,1.7-2.4,1.4c-1.1-0.3-1.7-1.4-1.4-2.4l3.2-12C22.2,14.7,32.1,9.7,42,12.3
	s15.9,12,13.6,20.8l-3.2,12C52.1,46,51.3,46.6,50.4,46.6z"/>
<path class="st1" d="M27.9,31.1c-0.2,0-0.3,0-0.5-0.1c-1.1-0.3-1.7-1.4-1.4-2.4l0.8-3.2c1.4-5.4,7.5-8.5,13.4-6.9
	c1.1,0.3,1.7,1.4,1.4,2.4c-0.3,1.1-1.4,1.7-2.4,1.4c-3.8-1-7.7,0.8-8.5,4.1l-0.8,3.2C29.6,30.5,28.8,31.1,27.9,31.1z"/>
</svg>
