<?xml version="1.0" encoding="utf-8"?>
<!-- Generator: Adobe Illustrator 23.0.6, SVG Export Plug-In . SVG Version: 6.00 Build 0)  -->
<svg version="1.1" id="圖層_1" xmlns="http://www.w3.org/2000/svg" xmlns:xlink="http://www.w3.org/1999/xlink" x="0px" y="0px"
	 viewBox="0 0 68 68" style="enable-background:new 0 0 68 68;" xml:space="preserve">
<style type="text/css">
	.st0{fill:#848484;}
	.st1{fill:#7DEA6A;}
</style>
<path class="st0" d="M41.1,57H26.9c-3.6,0-6.7-2.5-7.7-6L12,25.1l13.1,4.8c1.1,0.3,2.3-0.1,3.1-1L34,16l5.8,12.9
	c0.8,0.9,2,1.2,3.1,1L56,25.1L48.8,51C47.9,54.5,44.7,57,41.1,57z M18,31.5L23.1,50c0.5,1.8,2,3.1,3.8,3.1h14.2c1.8,0,3.3-1.3,3.8-3
	L50,31.5l-6,2.2c-2.7,0.7-5.6-0.2-7.4-2.4l-0.2-0.2L34,25.8l-2.4,5.3l-0.2,0.2c-1.9,2.2-4.7,3.1-7.4,2.4l-0.2-0.1L18,31.5z"/>
<path class="st1" d="M34.6,33.7l1.8,5.6h5.9c0.6,0,0.9,0.8,0.4,1.2L37.9,44l1.8,5.6c0.2,0.6-0.5,1.1-1,0.7L34,46.8l-4.8,3.5
	c-0.5,0.4-1.2-0.1-1-0.7L30,44l-4.8-3.5c-0.5-0.4-0.2-1.2,0.4-1.2h5.9l1.8-5.6C33.6,33.1,34.4,33.1,34.6,33.7z"/>
<circle class="st0" cx="56" cy="23" r="3"/>
<circle class="st0" cx="34" cy="14.1" r="3.5"/>
<circle class="st0" cx="12" cy="23" r="3"/>
</svg>
