<?xml version="1.0" encoding="utf-8"?>
<!-- Generator: Adobe Illustrator 23.0.6, SVG Export Plug-In . SVG Version: 6.00 Build 0)  -->
<svg version="1.1" id="圖層_1" xmlns="http://www.w3.org/2000/svg" xmlns:xlink="http://www.w3.org/1999/xlink" x="0px" y="0px"
	 viewBox="0 0 68 68" style="enable-background:new 0 0 68 68;" xml:space="preserve">
<style type="text/css">
	.st0{fill:#FFFFFF;}
	.st1{fill:#7DEA6A;}
	.st2{fill:#848484;}
</style>
<g>
	<path class="st0" d="M54,26.2h-9.4c-4.3,0-7.9,3.5-7.9,7.9l0,0c0,4.3,3.5,7.9,7.9,7.9H54V26.2z"/>
	<path class="st1" d="M54,26.2v15.7h-9.4c-4.3,0-7.9-3.5-7.9-7.9l0,0c0-4.3,3.5-7.9,7.9-7.9H54 M58,22.2h-4h-9.4
		c-6.5,0-11.9,5.3-11.9,11.9C32.7,40.6,38,46,44.6,46H54h4v-4V26.2V22.2L58,22.2z"/>
</g>
<path class="st2" d="M48,17.4c3.3,0,6,2.7,6,6v21.4c0,3.3-2.7,6-6,6H20c-3.3,0-6-2.7-6-6V23.4c0-3.3,2.7-6,6-6H48 M48,13.4H20
	c-5.5,0-10,4.5-10,10v21.4c0,5.5,4.5,10,10,10h28c5.5,0,10-4.5,10-10V23.4C58,17.9,53.5,13.4,48,13.4L48,13.4z"/>
<circle class="st1" cx="45.8" cy="34.1" r="3.9"/>
</svg>
